<svg width="640" height="312" viewBox="0 0 640 312" fill="none" xmlns="http://www.w3.org/2000/svg">
<ellipse opacity="0.2" cx="311.5" cy="264.5" rx="286.5" ry="38.5" fill="#C4C4C4"/>
<g clip-path="url(#clip0)">
<path d="M451.014 39.7728C451.014 39.7728 457.02 33.2323 458.861 33.0194C460.72 32.8066 468.354 36.4638 468.78 37.8958C469.226 39.3471 460.372 36.4445 459.887 37.8958C459.403 39.3471 458.861 40.3146 456.342 40.4307C453.823 40.5468 451.653 41.9594 451.653 41.9594L451.014 39.7728Z" fill="#FFB582"/>
<path d="M443.826 269C445.725 267.839 444.64 259.17 444.64 259.17C444.64 259.17 435.747 252.068 434.526 257.506C433.306 262.943 426.079 265.381 421.972 266.039C419.143 266.504 418.252 268.071 417.981 269H443.826Z" fill="#482D05"/>
<path d="M445.415 263.485C447.701 262.634 460.372 232.234 459.849 222.365C459.791 221.185 460.023 211.587 460.372 209.594C460.662 208.046 461.03 206.246 461.476 204.234C462.174 201.176 463.026 197.674 463.995 193.9C466.688 183.316 470.117 170.738 472.5 160.714C468.257 151.194 462.794 142.853 457.814 140.009C454.249 140.435 450.82 141.093 448.263 141.654C446.228 142.834 444.717 143.86 443.594 144.73C443.206 146.704 442.625 149.994 442.16 154.232C441.85 156.999 441.598 160.192 441.482 163.675C440.629 188.366 444.95 215.186 433.945 258.996C433.616 260.234 441.889 264.82 445.415 263.485Z" fill="#282828"/>
<path d="M442.14 154.251C443.981 163.423 448.398 183.045 463.995 193.9C466.688 183.316 470.117 170.738 472.5 160.714C468.257 151.194 462.794 142.853 457.814 140.009C454.249 140.435 450.82 141.093 448.263 141.654C446.228 142.834 444.717 143.86 443.594 144.73C443.187 146.724 442.625 150.013 442.14 154.251Z" fill="#212121"/>
<path d="M461.321 67.8893V69.4373C461.321 69.4373 460.895 74.2556 466.843 74.9522C472.771 75.6488 477.286 73.0752 477.111 69.3599C476.569 66.4767 475.987 64.5029 475.949 62.1228C475.929 61.2326 475.987 60.3038 476.162 59.2395L464.653 59.0073L461.263 59.5685L461.321 67.8893Z" fill="#FFB582"/>
<path d="M461.282 59.549L461.321 67.8697C462.542 68.4309 463.917 68.7792 465.467 68.7792C470.756 68.7792 474.166 64.9091 475.968 62.1032C475.949 61.2131 476.007 60.2843 476.181 59.22L464.673 58.9878L461.282 59.549Z" fill="#FFA364"/>
<path d="M460.604 63.6127C460.604 63.6127 475.348 66.5927 477.053 57.4012C478.758 48.2096 481.819 42.4044 472.481 40.1211C463.142 37.8377 460.662 41.0112 459.345 43.9331C458.027 46.8357 456.826 62.5871 460.604 63.6127Z" fill="#FFB582"/>
<path d="M471.221 269C471.221 269 472.035 264.607 473.294 262.053C474.573 259.499 482.691 261.124 482.691 261.124C482.691 261.124 484.318 262.517 484.667 269H471.221Z" fill="#482D05"/>
<path d="M455.315 144.885C455.315 144.885 463.394 180.839 465.99 197.054C466.959 203.131 468.974 222.578 469.284 228.712C469.71 237.13 472.5 262.924 472.5 262.924C472.5 262.924 477.189 259.963 484.144 262.73C484.144 262.73 485.907 251.178 487.012 226.97C487.341 219.869 485.965 209.207 486.14 205.743C486.953 188.714 492.398 144.711 488.077 141.886C483.757 139.061 455.315 144.885 455.315 144.885Z" fill="#282828"/>
<path d="M456.477 37.083C456.477 37.083 460.585 36.7734 465.428 34.6642C469.361 32.9613 474.321 34.8383 475.929 35.6898C475.891 35.4382 475.774 35.0705 475.542 34.7222C475.542 34.7222 476.259 35.2253 476.375 35.9413C476.452 35.9994 476.491 36.0381 476.472 36.0381C476.472 36.0381 477.286 35.8833 477.828 36.1155C477.828 36.1155 477.46 36.0574 477.324 36.309C477.305 36.3283 477.286 36.3477 477.266 36.367C483.408 39.3277 483.97 49.0223 481.994 51.2477C479.61 53.9374 476.762 60.0135 476.762 60.0135C476.762 60.0135 475.716 58.5815 476.162 56.2014C476.588 53.8213 474.534 53.8213 471.958 52.757C469.361 51.6734 471.531 48.6547 469.265 46.8164C466.998 44.9781 458.686 46.0617 458.783 44.6684C455.683 43.5655 456.477 37.3926 456.477 37.083Z" fill="#0A0A0A"/>
<path d="M452.544 36.5798C452.544 36.5798 453.784 37.0829 454.54 38.8439C455.489 41.0885 454.714 42.3076 454.714 42.3076C454.714 42.3076 439.118 56.4336 440.126 59.0072C440.649 60.3424 452.738 67.4247 457.756 70.3273C459.829 70.1531 461.297 70.1005 461.355 70.1005C461.355 70.1005 464.886 80.5638 477.131 69.3598C479.281 72.4752 495.924 80.1381 493.037 93.3739C492.359 96.4893 491.778 99.4113 491.254 102.178C487.825 120.929 488.096 131.978 488.755 138.074C489.278 142.834 491.254 143.318 489.491 144.576C489.491 144.576 486.043 146.124 479.61 147.439C474.825 148.426 468.393 149.316 460.488 149.355C447.914 149.433 443.148 145.098 443.148 145.098C439.816 141.847 446.403 129.037 445.88 119.807C445.608 115.066 445.899 98.8307 445.957 91.3808C445.957 91.3808 445.957 91.3808 445.938 91.3614C445.337 90.7035 426.932 70.4821 423.309 58.9878C423.134 58.4073 422.979 57.8462 422.882 57.3237C421.778 51.6927 452.544 36.5798 452.544 36.5798Z" fill="#F86663"/>
<path d="M488.755 138.074C488.077 131.978 487.825 120.91 491.254 102.178C491.022 101.424 490.789 100.708 490.557 100.03C489.511 96.9344 485.093 97.0892 484.26 100.243C481.722 110.054 479.436 126.734 488.755 138.074Z" fill="#D15350"/>
<path d="M492.514 127.818C492.514 127.818 484.861 123.193 482.497 123.793C480.134 124.374 474.98 126.618 475.309 127.973C475.619 129.347 481.606 130.276 482.633 130.101C483.679 129.947 485.345 130.121 486.023 130.721C486.702 131.301 492.126 131.533 492.785 129.947C493.463 128.36 492.514 127.818 492.514 127.818Z" fill="#FFB582"/>
<path d="M477.131 69.3599C477.131 69.3599 486.508 70.0371 491.603 73.0171C494.897 74.9522 514 105.352 514 109.822C514 114.292 493.948 130.159 493.948 130.159C493.948 130.159 490.228 131.398 490.092 125.477C490.092 125.477 500.089 110.712 499.566 108.99C499.237 107.906 484.493 96.1024 484.493 96.1024L477.131 69.3599Z" fill="#F86663"/>
<path d="M423.309 59.0073C426.932 70.4822 445.337 90.7036 445.938 91.3809C445.938 91.3809 445.938 91.3809 445.957 91.4002C446.015 91.2067 447.527 85.4209 443.904 81.2799C440.203 77.0421 427.474 66.496 423.309 59.0073Z" fill="#D15350"/>
</g>
<path d="M301.882 271.167L296 277H298.941L311 274.796V271.167L301.882 270V271.167Z" fill="#006BC2"/>
<path d="M363 272.538L361.453 271L354.422 273.154L354 275.615L355.828 277L359.203 276.538H359.063L362.297 274.692V274.846L363 272.538Z" fill="#006BC2"/>
<path d="M97 264.282L95.4531 263L88.4219 264.795L88 266.846L89.8281 268L93.2031 267.615H93.0625L96.2969 266.077V266.205L97 264.282Z" fill="#23BDEF"/>
<path d="M339 275.12L338.654 274.48L337.154 274L336 275.12L336.231 277.68L337.038 278H336.808L338.885 276.24L339 275.12Z" fill="#006BC2"/>
<path d="M242.338 289.934L242.016 289.093L240.181 288.21L238.486 289.323L238.294 292.451L239.269 293.001L238.973 292.954L241.976 291.259L242.338 289.934Z" fill="#23BDEF"/>
<path d="M277.162 296.096L276.783 295.475L275.26 295.074L274.167 296.253L274.531 298.797L275.354 299.075L275.124 299.087L277.106 297.221L277.162 296.096Z" fill="#23BDEF"/>
<path d="M75 261.4L74.4231 260.6L71.9231 260L70 261.4L70.3846 264.6L71.7308 265H71.3461L74.8077 262.8L75 261.4Z" fill="#23BDEF"/>
<path d="M86 261.12L85.5385 260.48L83.5385 260L82 261.12L82.3077 263.68L83.3846 264H83.0769L85.8462 262.24L86 261.12Z" fill="#2380CC"/>
<path d="M72.3208 256.207L72.7389 256.006L73.2249 254.901L72.738 253.894L71.2261 253.805L70.9289 254.394L70.961 254.217L71.6895 256.001L72.3208 256.207Z" fill="#2380CC"/>
<path d="M377 276.757L376.077 275.135L374.846 275L373 276.486L373.923 279.865L375.154 280L376.846 278.784L377 276.757Z" fill="#006BC2"/>
<path d="M323.472 278.286L319.642 278L317.396 279.571L317 281.857L318.717 283L323.34 281.571L324 280.429L323.472 278.286Z" fill="#006BC2"/>
<path d="M261.474 294.391L258.762 291.746L247.717 294.27L247.144 295.656L248.136 296.895L259.061 297.124L261.474 294.391Z" fill="#23BDEF"/>
<path d="M371.596 118L76 256.398L335.3 181.976L371.596 118Z" fill="#23BDEF"/>
<path d="M335.3 181.976L76 256.398L151.205 259.27L216.487 238.902L274.457 263.448L393.531 268.671L335.3 181.976Z" fill="#006BC2"/>
<path d="M393.531 268.671L264.5 268.671L318.5 205L337.127 221.145L337.911 222.973V224.54L342.089 226.629L343.394 228.718L346.006 231.068L347.05 235.246L352.795 236.03L353.317 235.507L355.145 236.291L355.406 236.552L393.531 268.671Z" fill="#00489A"/>
<path d="M318.587 204.956L289.08 294L281.768 292.694L278.113 289.3L282.813 285.644L279.679 281.205L282.813 277.549L279.679 272.849L276.546 269.193L280.724 265.537L279.157 261.098L277.068 257.181L281.246 253.525L282.03 249.608L280.985 253.264L276.285 257.181L278.374 261.359L279.418 265.015L274.457 268.932L278.113 273.632L280.202 277.288L276.807 280.944L279.157 284.861L273.673 288.777L276.285 291.65L86.7062 257.181L83.3116 257.703L76 256.398L81.2225 255.875L85.4006 254.831L86.9674 253.786L89.0564 254.57L318.587 204.956Z" fill="#23BDEF"/>
<path d="M87.2285 253.786L85.4006 255.092L83.5727 257.442L86.4451 256.92L87.2285 253.786Z" fill="#006BC2"/>
<path d="M87.2285 254.047L89.0564 254.831L88.273 257.181L86.7062 256.92L87.2285 254.047Z" fill="#2380CC"/>
<defs>
<clipPath id="clip0">
<rect width="96" height="236" fill="white" transform="translate(418 33)"/>
</clipPath>
</defs>
</svg>
