<svg width="32" height="32" viewBox="0 0 32 32" fill="none" xmlns="http://www.w3.org/2000/svg">
<path d="M23.275 7.60018H22.2V5.20006C22.2 4.88178 22.0867 4.57654 21.8851 4.35149C21.6835 4.12643 21.4101 4 21.125 4C20.8399 4 20.5665 4.12643 20.3649 4.35149C20.1633 4.57654 20.05 4.88178 20.05 5.20006V7.60018H11.45V5.20006C11.45 4.88178 11.3367 4.57654 11.1351 4.35149C10.9335 4.12643 10.6601 4 10.375 4C10.0899 4 9.81646 4.12643 9.61486 4.35149C9.41326 4.57654 9.3 4.88178 9.3 5.20006V7.60018H8.225C7.36968 7.60018 6.54939 7.97948 5.94458 8.65464C5.33978 9.32981 5 10.2455 5 11.2004V12.4004H26.5V11.2004C26.5 10.2455 26.1602 9.32981 25.5554 8.65464C24.9506 7.97948 24.1303 7.60018 23.275 7.60018Z" fill="#006BC2"/>
<path d="M5 24.3983C5 25.3531 5.33978 26.2689 5.94458 26.944C6.54939 27.6192 7.36968 27.9985 8.225 27.9985H23.275C24.1303 27.9985 24.9506 27.6192 25.5554 26.944C26.1602 26.2689 26.5 25.3531 26.5 24.3983V14.7979H5V24.3983Z" fill="#006BC2"/>
</svg>
