<svg width="32" height="32" viewBox="0 0 32 32" fill="none" xmlns="http://www.w3.org/2000/svg">
<path d="M24.9302 4H7.06977C6.2558 4.00059 5.47533 4.32595 4.89977 4.90461C4.3242 5.48327 4.00059 6.26793 4 7.08628V20.5537C4.00059 21.372 4.3242 22.1567 4.89977 22.7353C5.47533 23.314 6.2558 23.6393 7.06977 23.6399H8.45619C8.75452 23.6402 9.04055 23.7595 9.2515 23.9716C9.46246 24.1837 9.5811 24.4713 9.5814 24.7712V25.4681C9.57606 25.9688 9.72123 26.4594 9.99789 26.8757C10.2745 27.292 10.6698 27.6147 11.1319 27.8014C11.4415 27.9311 11.7733 27.9986 12.1087 28C12.4366 27.9989 12.7611 27.9324 13.0632 27.8042C13.3654 27.6761 13.6393 27.489 13.869 27.2537L17.1341 23.971C17.3443 23.7574 17.6301 23.6363 17.9289 23.6343H24.9302C25.7432 23.6337 26.5229 23.3092 27.0983 22.7317C27.6737 22.1543 27.9979 21.371 28 20.5537V7.08628C27.9994 6.26793 27.6758 5.48327 27.1002 4.90461C26.5247 4.32595 25.7442 4.00059 24.9302 4Z" fill="#006BC2"/>
<path d="M21.5811 12.4139H10.4183C10.1962 12.4139 9.98327 12.3252 9.82627 12.1674C9.66926 12.0095 9.58105 11.7954 9.58105 11.5722C9.58105 11.3489 9.66926 11.1349 9.82627 10.977C9.98327 10.8191 10.1962 10.7305 10.4183 10.7305H21.5811C21.8031 10.7305 22.016 10.8191 22.1731 10.977C22.3301 11.1349 22.4183 11.3489 22.4183 11.5722C22.4183 11.7954 22.3301 12.0095 22.1731 12.1674C22.016 12.3252 21.8031 12.4139 21.5811 12.4139Z" fill="white"/>
<path d="M17.1159 16.9007H10.4183C10.1962 16.9007 9.98327 16.812 9.82627 16.6542C9.66926 16.4963 9.58105 16.2822 9.58105 16.059C9.58105 15.8358 9.66926 15.6217 9.82627 15.4638C9.98327 15.306 10.1962 15.2173 10.4183 15.2173H17.1159C17.338 15.2173 17.5509 15.306 17.7079 15.4638C17.8649 15.6217 17.9531 15.8358 17.9531 16.059C17.9531 16.2822 17.8649 16.4963 17.7079 16.6542C17.5509 16.812 17.338 16.9007 17.1159 16.9007Z" fill="white"/>
</svg>
