<svg width="199" height="60" viewBox="0 0 199 60" fill="none" xmlns="http://www.w3.org/2000/svg">
<g opacity="0.2">
<path d="M38.309 17.9168C37.7312 17.8526 37.346 17.8205 37.1534 17.8205C36.3188 17.8205 35.6447 17.981 35.1311 18.302C34.6495 18.623 34.2804 19.1367 34.0236 19.8429H37.972L36.383 28.7508H32.3865L29.1603 47H18.4708L21.6969 28.7508H18.8079L20.3969 19.8429H23.2859C23.96 16.3118 25.549 13.5832 28.0529 11.6572C30.5567 9.69907 33.7668 8.72 37.6831 8.72C38.1325 8.72 38.8708 8.7521 39.898 8.8163L38.309 17.9168ZM36.9977 33.4214C37.5113 30.5645 38.4422 28.0927 39.7904 26.0062C41.1386 23.8875 42.7597 22.2825 44.6537 21.1911C46.5476 20.0676 48.5539 19.5058 50.6725 19.5058C52.4381 19.5058 53.8986 19.875 55.0543 20.6133C56.2099 21.3195 57.0124 22.2986 57.4618 23.5505L58.1359 19.8429H68.7773L63.9622 47H53.3208L53.9949 43.2924C53.0961 44.5443 51.9405 45.5394 50.5281 46.2777C49.1156 46.9839 47.5267 47.3371 45.7611 47.3371C43.0326 47.3371 40.8337 46.4222 39.1645 44.5925C37.4952 42.7627 36.6606 40.2268 36.6606 36.9846C36.6606 35.7648 36.773 34.5771 36.9977 33.4214ZM55.7284 33.4214C55.7926 33.1325 55.8247 32.7473 55.8247 32.2658C55.8247 31.1744 55.5358 30.3398 54.958 29.762C54.3802 29.152 53.5937 28.8471 52.5986 28.8471C51.4429 28.8471 50.4157 29.2484 49.5169 30.0509C48.6502 30.8534 48.0884 31.9769 47.8316 33.4214C47.7674 33.7103 47.7353 34.0955 47.7353 34.5771C47.7353 35.6685 48.0242 36.5191 48.602 37.1291C49.1798 37.7069 49.9663 37.9958 50.9614 37.9958C52.1171 37.9958 53.1282 37.5945 53.9949 36.792C54.8938 35.9895 55.4716 34.866 55.7284 33.4214ZM81.1852 47.3371C78.8097 47.3371 76.6911 46.9839 74.8293 46.2777C72.9995 45.5715 71.555 44.5925 70.4957 43.3405C69.4685 42.0565 68.9548 40.5959 68.9548 38.9588C68.9548 38.3489 68.9869 37.8995 69.0511 37.6106H79.3073C79.2752 38.4131 79.4999 39.0069 79.9814 39.3922C80.495 39.7774 81.1852 39.97 82.0519 39.97C82.5976 39.97 83.0631 39.8416 83.4483 39.5848C83.8656 39.3279 84.0742 39.023 84.0742 38.6699C84.0742 38.1563 83.7532 37.755 83.1112 37.4661C82.4692 37.1451 81.4099 36.792 79.9333 36.4068C78.0714 35.8932 76.5145 35.3635 75.2626 34.8178C74.0428 34.2721 72.9674 33.4696 72.0365 32.4103C71.1377 31.3188 70.6883 29.9064 70.6883 28.173C70.6883 26.5679 71.1698 25.1074 72.1328 23.7912C73.1279 22.443 74.5083 21.3997 76.2738 20.6614C78.0714 19.891 80.1419 19.5058 82.4853 19.5058C85.0533 19.5058 87.2522 19.9392 89.0819 20.8059C90.9438 21.6726 92.3402 22.8443 93.2711 24.3209C94.202 25.7975 94.6353 27.4347 94.5711 29.2323H85.0854C85.0854 28.494 84.8607 27.9322 84.4113 27.547C83.9619 27.1297 83.3038 26.9211 82.4371 26.9211C81.8914 26.9211 81.4259 27.0334 81.0407 27.2581C80.6876 27.4828 80.5111 27.7878 80.5111 28.173C80.5111 28.6545 80.8321 29.0557 81.4741 29.3768C82.1161 29.6657 83.2075 30.0509 84.7484 30.5324C86.6423 31.0781 88.1992 31.6238 89.419 32.1695C90.6709 32.6831 91.7623 33.4696 92.6933 34.5289C93.6242 35.5561 94.0896 36.8723 94.0896 38.4773C94.0896 41.27 92.8859 43.4529 90.4783 45.0258C88.1029 46.5666 85.0052 47.3371 81.1852 47.3371ZM110.947 36.0697C110.915 36.1981 110.899 36.3586 110.899 36.5512C110.899 37.4501 111.477 37.8995 112.633 37.8995H115.185L113.548 47H109.503C103.179 47 100.017 44.3196 100.017 38.9588C100.017 37.9958 100.113 36.9686 100.306 35.8771L101.558 28.7508H98.1874L99.7763 19.8429H103.147L104.303 13.2943H114.992L113.836 19.8429H118.266L116.677 28.7508H112.247L110.947 36.0697ZM134.905 19.5058C138.5 19.5058 141.357 20.4688 143.476 22.3949C145.594 24.2888 146.654 26.889 146.654 30.1953C146.654 31.1262 146.557 32.1214 146.365 33.1807C146.14 34.24 145.963 34.9462 145.835 35.2993H128.693C128.661 35.4919 128.645 35.7648 128.645 36.1179C128.645 37.9155 129.415 38.8143 130.956 38.8143C132.144 38.8143 133.075 38.2847 133.749 37.2254H145.065C144.358 39.1514 143.251 40.8848 141.742 42.4257C140.233 43.9344 138.452 45.1382 136.397 46.037C134.375 46.9037 132.24 47.3371 129.993 47.3371C126.398 47.3371 123.541 46.3901 121.422 44.4962C119.336 42.5701 118.293 39.9058 118.293 36.5031C118.293 35.508 118.389 34.4808 118.582 33.4214C119.095 30.5966 120.122 28.1409 121.663 26.0543C123.204 23.9357 125.114 22.3146 127.393 21.1911C129.704 20.0676 132.208 19.5058 134.905 19.5058ZM135.916 30.9176C135.948 30.7571 135.964 30.5163 135.964 30.1953C135.964 29.4249 135.723 28.8471 135.242 28.4619C134.76 28.0767 134.15 27.8841 133.412 27.8841C131.486 27.8841 130.186 28.8952 129.512 30.9176H135.916ZM161.928 24.8506C163.308 23.2776 164.849 22.0257 166.55 21.0948C168.283 20.1318 170.001 19.6503 171.702 19.6503L169.728 31.062H166.694C164.672 31.062 163.115 31.4151 162.024 32.1214C160.965 32.8276 160.274 34.0795 159.953 35.8771L157.979 47H147.29L152.105 19.8429H162.794L161.928 24.8506Z" fill="url(#paint0_linear_1079_5307)"/>
</g>
<g opacity="0.1">
<path d="M29.5532 17.9168C28.9754 17.8526 28.5901 17.8205 28.3975 17.8205C27.5629 17.8205 26.8888 17.981 26.3752 18.302C25.8937 18.623 25.5245 19.1367 25.2677 19.8429H29.2161L27.6271 28.7508H23.6306L20.4045 47H9.71497L12.9411 28.7508H10.052L11.641 19.8429H14.5301C15.2042 16.3118 16.7932 13.5832 19.297 11.6572C21.8009 9.69907 25.0109 8.72 28.9272 8.72C29.3766 8.72 30.1149 8.7521 31.1421 8.8163L29.5532 17.9168ZM28.2418 33.4214C28.7554 30.5645 29.6863 28.0927 31.0346 26.0062C32.3828 23.8875 34.0039 22.2825 35.8978 21.1911C37.7917 20.0676 39.798 19.5058 41.9167 19.5058C43.6822 19.5058 45.1428 19.875 46.2984 20.6133C47.454 21.3195 48.2565 22.2986 48.706 23.5505L49.3801 19.8429H60.0214L55.2063 47H44.565L45.2391 43.2924C44.3403 44.5443 43.1846 45.5394 41.7722 46.2777C40.3598 46.9839 38.7708 47.3371 37.0053 47.3371C34.2767 47.3371 32.0778 46.4222 30.4086 44.5925C28.7394 42.7627 27.9047 40.2268 27.9047 36.9846C27.9047 35.7648 28.0171 34.5771 28.2418 33.4214ZM46.9725 33.4214C47.0367 33.1325 47.0688 32.7473 47.0688 32.2658C47.0688 31.1744 46.7799 30.3398 46.2021 29.762C45.6243 29.152 44.8378 28.8471 43.8427 28.8471C42.6871 28.8471 41.6599 29.2484 40.761 30.0509C39.8943 30.8534 39.3326 31.9769 39.0758 33.4214C39.0116 33.7103 38.9795 34.0955 38.9795 34.5771C38.9795 35.6685 39.2684 36.5191 39.8462 37.1291C40.424 37.7069 41.2105 37.9958 42.2056 37.9958C43.3612 37.9958 44.3724 37.5945 45.2391 36.792C46.1379 35.9895 46.7157 34.866 46.9725 33.4214ZM72.4293 47.3371C70.0539 47.3371 67.9352 46.9839 66.0734 46.2777C64.2437 45.5715 62.7991 44.5925 61.7398 43.3405C60.7126 42.0565 60.199 40.5959 60.199 38.9588C60.199 38.3489 60.2311 37.8995 60.2953 37.6106H70.5514C70.5193 38.4131 70.744 39.0069 71.2255 39.3922C71.7392 39.7774 72.4293 39.97 73.296 39.97C73.8418 39.97 74.3072 39.8416 74.6924 39.5848C75.1097 39.3279 75.3184 39.023 75.3184 38.6699C75.3184 38.1563 74.9974 37.755 74.3554 37.4661C73.7133 37.1451 72.654 36.792 71.1774 36.4068C69.3156 35.8932 67.7587 35.3635 66.5068 34.8178C65.2869 34.2721 64.2116 33.4696 63.2806 32.4103C62.3818 31.3188 61.9324 29.9064 61.9324 28.173C61.9324 26.5679 62.4139 25.1074 63.3769 23.7912C64.3721 22.443 65.7524 21.3997 67.5179 20.6614C69.3156 19.891 71.3861 19.5058 73.7294 19.5058C76.2974 19.5058 78.4963 19.9392 80.3261 20.8059C82.1879 21.6726 83.5843 22.8443 84.5152 24.3209C85.4461 25.7975 85.8795 27.4347 85.8153 29.2323H76.3295C76.3295 28.494 76.1048 27.9322 75.6554 27.547C75.206 27.1297 74.548 26.9211 73.6812 26.9211C73.1355 26.9211 72.6701 27.0334 72.2849 27.2581C71.9318 27.4828 71.7552 27.7878 71.7552 28.173C71.7552 28.6545 72.0762 29.0557 72.7182 29.3768C73.3602 29.6657 74.4517 30.0509 75.9925 30.5324C77.8864 31.0781 79.4433 31.6238 80.6631 32.1695C81.9151 32.6831 83.0065 33.4696 83.9374 34.5289C84.8683 35.5561 85.3338 36.8723 85.3338 38.4773C85.3338 41.27 84.13 43.4529 81.7225 45.0258C79.347 46.5666 76.2493 47.3371 72.4293 47.3371ZM102.191 36.0697C102.159 36.1981 102.143 36.3586 102.143 36.5512C102.143 37.4501 102.721 37.8995 103.877 37.8995H106.429L104.792 47H100.747C94.4231 47 91.2612 44.3196 91.2612 38.9588C91.2612 37.9958 91.3575 36.9686 91.5501 35.8771L92.8021 28.7508H89.4315L91.0205 19.8429H94.391L95.5467 13.2943H106.236L105.081 19.8429H109.51L107.921 28.7508H103.492L102.191 36.0697ZM126.149 19.5058C129.744 19.5058 132.601 20.4688 134.72 22.3949C136.838 24.2888 137.898 26.889 137.898 30.1953C137.898 31.1262 137.801 32.1214 137.609 33.1807C137.384 34.24 137.208 34.9462 137.079 35.2993H119.937C119.905 35.4919 119.889 35.7648 119.889 36.1179C119.889 37.9155 120.66 38.8143 122.2 38.8143C123.388 38.8143 124.319 38.2847 124.993 37.2254H136.309C135.602 39.1514 134.495 40.8848 132.986 42.4257C131.478 43.9344 129.696 45.1382 127.642 46.037C125.619 46.9037 123.484 47.3371 121.237 47.3371C117.642 47.3371 114.785 46.3901 112.667 44.4962C110.58 42.5701 109.537 39.9058 109.537 36.5031C109.537 35.508 109.633 34.4808 109.826 33.4214C110.339 30.5966 111.367 28.1409 112.907 26.0543C114.448 23.9357 116.358 22.3146 118.637 21.1911C120.949 20.0676 123.452 19.5058 126.149 19.5058ZM127.16 30.9176C127.192 30.7571 127.208 30.5163 127.208 30.1953C127.208 29.4249 126.967 28.8471 126.486 28.4619C126.004 28.0767 125.394 27.8841 124.656 27.8841C122.73 27.8841 121.43 28.8952 120.756 30.9176H127.16ZM153.172 24.8506C154.552 23.2776 156.093 22.0257 157.794 21.0948C159.528 20.1318 161.245 19.6503 162.946 19.6503L160.972 31.062H157.939C155.916 31.062 154.359 31.4151 153.268 32.1214C152.209 32.8276 151.519 34.0795 151.197 35.8771L149.223 47H138.534L143.349 19.8429H154.038L153.172 24.8506Z" fill="url(#paint1_linear_1079_5307)"/>
</g>
<g opacity="0.05">
<path d="M20.8012 17.9168C20.2234 17.8526 19.8382 17.8205 19.6456 17.8205C18.811 17.8205 18.1369 17.981 17.6232 18.302C17.1417 18.623 16.7726 19.1367 16.5158 19.8429H20.4642L18.8752 28.7508H14.8786L11.6525 47H0.963019L4.18913 28.7508H1.30008L2.88906 19.8429H5.77811C6.45223 16.3118 8.04121 13.5832 10.5451 11.6572C13.0489 9.69907 16.259 8.72 20.1752 8.72C20.6247 8.72 21.363 8.7521 22.3902 8.8163L20.8012 17.9168ZM19.4898 33.4214C20.0035 30.5645 20.9344 28.0927 22.2826 26.0062C23.6308 23.8875 25.2519 22.2825 27.1458 21.1911C29.0398 20.0676 31.0461 19.5058 33.1647 19.5058C34.9303 19.5058 36.3908 19.875 37.5465 20.6133C38.7021 21.3195 39.5046 22.2986 39.954 23.5505L40.6281 19.8429H51.2695L46.4544 47H35.813L36.4871 43.2924C35.5883 44.5443 34.4327 45.5394 33.0203 46.2777C31.6078 46.9839 30.0189 47.3371 28.2533 47.3371C25.5248 47.3371 23.3259 46.4222 21.6566 44.5925C19.9874 42.7627 19.1528 40.2268 19.1528 36.9846C19.1528 35.7648 19.2651 34.5771 19.4898 33.4214ZM38.2206 33.4214C38.2848 33.1325 38.3169 32.7473 38.3169 32.2658C38.3169 31.1744 38.028 30.3398 37.4501 29.762C36.8723 29.152 36.0859 28.8471 35.0908 28.8471C33.9351 28.8471 32.9079 29.2484 32.0091 30.0509C31.1424 30.8534 30.5806 31.9769 30.3238 33.4214C30.2596 33.7103 30.2275 34.0955 30.2275 34.5771C30.2275 35.6685 30.5164 36.5191 31.0942 37.1291C31.672 37.7069 32.4585 37.9958 33.4536 37.9958C34.6092 37.9958 35.6204 37.5945 36.4871 36.792C37.3859 35.9895 37.9638 34.866 38.2206 33.4214ZM63.6774 47.3371C61.3019 47.3371 59.1833 46.9839 57.3214 46.2777C55.4917 45.5715 54.0472 44.5925 52.9879 43.3405C51.9606 42.0565 51.447 40.5959 51.447 38.9588C51.447 38.3489 51.4791 37.8995 51.5433 37.6106H61.7995C61.7674 38.4131 61.9921 39.0069 62.4736 39.3922C62.9872 39.7774 63.6774 39.97 64.5441 39.97C65.0898 39.97 65.5553 39.8416 65.9405 39.5848C66.3578 39.3279 66.5664 39.023 66.5664 38.6699C66.5664 38.1563 66.2454 37.755 65.6034 37.4661C64.9614 37.1451 63.9021 36.792 62.4254 36.4068C60.5636 35.8932 59.0067 35.3635 57.7548 34.8178C56.535 34.2721 55.4596 33.4696 54.5287 32.4103C53.6299 31.3188 53.1805 29.9064 53.1805 28.173C53.1805 26.5679 53.662 25.1074 54.625 23.7912C55.6201 22.443 57.0004 21.3997 58.766 20.6614C60.5636 19.891 62.6341 19.5058 64.9774 19.5058C67.5455 19.5058 69.7444 19.9392 71.5741 20.8059C73.436 21.6726 74.8323 22.8443 75.7633 24.3209C76.6942 25.7975 77.1275 27.4347 77.0633 29.2323H67.5776C67.5776 28.494 67.3529 27.9322 66.9035 27.547C66.4541 27.1297 65.796 26.9211 64.9293 26.9211C64.3836 26.9211 63.9181 27.0334 63.5329 27.2581C63.1798 27.4828 63.0033 27.7878 63.0033 28.173C63.0033 28.6545 63.3243 29.0557 63.9663 29.3768C64.6083 29.6657 65.6997 30.0509 67.2405 30.5324C69.1345 31.0781 70.6914 31.6238 71.9112 32.1695C73.1631 32.6831 74.2545 33.4696 75.1854 34.5289C76.1164 35.5561 76.5818 36.8723 76.5818 38.4773C76.5818 41.27 75.378 43.4529 72.9705 45.0258C70.5951 46.5666 67.4973 47.3371 63.6774 47.3371ZM93.4395 36.0697C93.4074 36.1981 93.3914 36.3586 93.3914 36.5512C93.3914 37.4501 93.9692 37.8995 95.1248 37.8995H97.6768L96.0397 47H91.995C85.6712 47 82.5093 44.3196 82.5093 38.9588C82.5093 37.9958 82.6056 36.9686 82.7982 35.8771L84.0501 28.7508H80.6795L82.2685 19.8429H85.6391L86.7947 13.2943H97.4842L96.3286 19.8429H100.758L99.1695 28.7508H94.7396L93.4395 36.0697ZM117.397 19.5058C120.992 19.5058 123.849 20.4688 125.968 22.3949C128.086 24.2888 129.146 26.889 129.146 30.1953C129.146 31.1262 129.049 32.1214 128.857 33.1807C128.632 34.24 128.456 34.9462 128.327 35.2993H111.185C111.153 35.4919 111.137 35.7648 111.137 36.1179C111.137 37.9155 111.908 38.8143 113.449 38.8143C114.636 38.8143 115.567 38.2847 116.241 37.2254H127.557C126.851 39.1514 125.743 40.8848 124.234 42.4257C122.726 43.9344 120.944 45.1382 118.89 46.037C116.867 46.9037 114.733 47.3371 112.485 47.3371C108.89 47.3371 106.033 46.3901 103.915 44.4962C101.828 42.5701 100.785 39.9058 100.785 36.5031C100.785 35.508 100.881 34.4808 101.074 33.4214C101.587 30.5966 102.615 28.1409 104.155 26.0543C105.696 23.9357 107.606 22.3146 109.885 21.1911C112.197 20.0676 114.7 19.5058 117.397 19.5058ZM118.408 30.9176C118.44 30.7571 118.456 30.5163 118.456 30.1953C118.456 29.4249 118.215 28.8471 117.734 28.4619C117.252 28.0767 116.643 27.8841 115.904 27.8841C113.978 27.8841 112.678 28.8952 112.004 30.9176H118.408ZM144.42 24.8506C145.8 23.2776 147.341 22.0257 149.042 21.0948C150.776 20.1318 152.493 19.6503 154.194 19.6503L152.22 31.062H149.187C147.164 31.062 145.607 31.4151 144.516 32.1214C143.457 32.8276 142.767 34.0795 142.446 35.8771L140.471 47H129.782L134.597 19.8429H145.286L144.42 24.8506Z" fill="url(#paint2_linear_1079_5307)"/>
</g>
<path d="M47.391 19.7273L46.1836 26.8295H27.9308L29.1381 19.7273H47.391ZM28.0373 47L32.7248 18.946C33.0917 16.697 33.796 14.8326 34.8377 13.353C35.8912 11.8733 37.2111 10.7666 38.7972 10.0327C40.3952 9.29877 42.1826 8.93182 44.1594 8.93182C45.4142 8.93182 46.6156 9.02651 47.7638 9.21591C48.9121 9.4053 49.7466 9.57102 50.2674 9.71307L47.7106 16.7443C47.3673 16.6378 46.9708 16.5549 46.521 16.4957C46.0711 16.4247 45.6628 16.3892 45.2958 16.3892C44.3844 16.3892 43.7333 16.5845 43.3427 16.9751C42.9639 17.3658 42.7153 17.8807 42.5969 18.5199L37.8384 47H28.0373ZM52.9973 47.4261C51.2691 47.4261 49.7836 47.142 48.5407 46.5739C47.3096 45.9938 46.41 45.1179 45.8418 43.946C45.2855 42.7623 45.1612 41.2708 45.4689 39.4716C45.7175 37.9801 46.1851 36.7076 46.8716 35.6541C47.5582 34.6006 48.4105 33.7365 49.4284 33.0618C50.4464 32.3871 51.5887 31.8722 52.8553 31.517C54.1337 31.1501 55.4831 30.9134 56.9036 30.8068C58.4424 30.6884 59.6912 30.5405 60.65 30.3629C61.6088 30.1854 62.325 29.9427 62.7985 29.6349C63.272 29.3272 63.556 28.9129 63.6507 28.392V28.321C63.7573 27.6108 63.5679 27.0663 63.0826 26.6875C62.6091 26.3087 61.9462 26.1193 61.0939 26.1193C60.1706 26.1193 59.3716 26.3205 58.6969 26.723C58.034 27.1255 57.5783 27.7528 57.3297 28.6051H48.3098C48.6886 26.9479 49.464 25.4209 50.6358 24.0241C51.8195 22.6155 53.388 21.491 55.3411 20.6506C57.306 19.7983 59.6498 19.3722 62.3723 19.3722C64.3136 19.3722 66.0182 19.603 67.486 20.0646C68.9538 20.5144 70.1671 21.1477 71.1259 21.9645C72.0965 22.7694 72.7772 23.7164 73.1678 24.8054C73.5703 25.8826 73.665 27.0545 73.4519 28.321L70.3269 47H61.165L61.8042 43.1648H61.5911C60.8809 44.1828 60.0819 45.0054 59.1941 45.6328C58.3181 46.2602 57.3593 46.7159 56.3176 47C55.2878 47.2841 54.181 47.4261 52.9973 47.4261ZM57.2587 41.2472C57.9926 41.2472 58.7147 41.0933 59.4249 40.7855C60.1351 40.4777 60.7447 40.0339 61.2537 39.4538C61.7627 38.8738 62.0882 38.1695 62.2303 37.3409L62.5854 35.0682C62.325 35.1747 62.035 35.2753 61.7154 35.37C61.4076 35.4529 61.0821 35.5357 60.7388 35.6186C60.4074 35.7015 60.0523 35.7784 59.6735 35.8494C59.3065 35.9205 58.9277 35.9915 58.5371 36.0625C57.7559 36.1809 57.0989 36.3762 56.5662 36.6484C56.0336 36.9089 55.6193 37.2344 55.3233 37.625C55.0274 38.0038 54.8439 38.4299 54.7729 38.9034C54.6664 39.6491 54.838 40.2292 55.2878 40.6435C55.7495 41.0459 56.4064 41.2472 57.2587 41.2472ZM102.922 28.6051H94.1151C94.1624 28.0369 94.0618 27.5516 93.8132 27.1491C93.5646 26.7467 93.2154 26.4389 92.7656 26.2259C92.3277 26.0128 91.8305 25.9062 91.2741 25.9062C90.3035 25.9062 89.4216 26.1252 88.6286 26.5632C87.8355 26.9893 87.3916 27.5516 87.2969 28.25C87.2377 28.5223 87.3265 28.7768 87.5632 29.0135C87.8 29.2502 88.4214 29.4692 89.4276 29.6705L94.8253 30.6648C97.5241 31.1619 99.4891 32.0675 100.72 33.3814C101.963 34.6835 102.413 36.4058 102.07 38.5483C101.75 40.4067 100.933 42.0047 99.6193 43.3423C98.3054 44.6799 96.6364 45.7098 94.6122 46.4318C92.5999 47.142 90.3745 47.4972 87.9361 47.4972C83.6392 47.4972 80.4195 46.639 78.277 44.9226C76.1463 43.2062 75.1757 40.9631 75.3651 38.1932H84.8821C84.9058 39.081 85.2017 39.7498 85.7699 40.1996C86.3499 40.6375 87.1193 40.8684 88.0781 40.892C89.1198 40.9276 90.0312 40.7204 90.8125 40.2706C91.5938 39.8089 92.0317 39.2348 92.1264 38.5483C92.1619 38.1577 91.9903 37.8617 91.6115 37.6605C91.2446 37.4593 90.5402 37.258 89.4986 37.0568L84.8111 36.2045C82.1122 35.7192 80.1473 34.7486 78.9162 33.2926C77.6851 31.8248 77.259 29.9545 77.6378 27.6818C77.9455 25.8707 78.6795 24.3497 79.8395 23.1186C81.0114 21.8875 82.5502 20.9583 84.456 20.331C86.3617 19.6918 88.5634 19.3722 91.0611 19.3722C95.1449 19.3722 98.2344 20.1948 100.33 21.8402C102.437 23.4737 103.301 25.7287 102.922 28.6051ZM125.214 19.7273L124.007 26.8295H106.038L107.245 19.7273H125.214ZM111.791 13.1932H121.592L117.437 38.2287C117.378 38.6075 117.39 38.9271 117.473 39.1875C117.556 39.4361 117.721 39.6255 117.97 39.7557C118.23 39.8741 118.574 39.9332 119 39.9332C119.284 39.9332 119.633 39.8977 120.047 39.8267C120.462 39.7438 120.775 39.6847 120.988 39.6491L121.272 46.5384C120.775 46.6804 120.106 46.8402 119.266 47.0178C118.437 47.2071 117.473 47.3314 116.372 47.3906C114.075 47.4972 112.205 47.2545 110.761 46.6626C109.329 46.0708 108.334 45.1475 107.778 43.8928C107.234 42.6262 107.139 41.0459 107.494 39.152L111.791 13.1932ZM137.372 47.4972C134.46 47.4972 132.046 46.9408 130.128 45.8281C128.21 44.7036 126.861 43.0937 126.08 40.9986C125.298 38.8916 125.156 36.3703 125.654 33.4347C126.127 30.6174 127.104 28.1553 128.583 26.0483C130.075 23.9413 131.951 22.3018 134.212 21.13C136.485 19.9581 139.03 19.3722 141.847 19.3722C143.906 19.3722 145.712 19.6918 147.262 20.331C148.825 20.9702 150.097 21.8994 151.08 23.1186C152.062 24.3378 152.725 25.8116 153.068 27.5398C153.423 29.2562 153.423 31.1974 153.068 33.3636L152.713 35.6364H128.352L129.205 30.2386H144.546C144.664 29.4574 144.587 28.7708 144.315 28.179C144.054 27.5753 143.634 27.1077 143.054 26.7763C142.486 26.433 141.799 26.2614 140.994 26.2614C140.19 26.2614 139.432 26.433 138.722 26.7763C138.023 27.1196 137.426 27.599 136.928 28.2145C136.443 28.83 136.118 29.5521 135.952 30.3807L134.887 36.0625C134.744 36.9384 134.798 37.7197 135.046 38.4062C135.295 39.0928 135.727 39.6314 136.343 40.022C136.958 40.4126 137.751 40.608 138.722 40.608C139.385 40.608 140.012 40.5192 140.604 40.3416C141.208 40.1522 141.74 39.88 142.202 39.5249C142.675 39.1579 143.054 38.714 143.338 38.1932H152.287C151.648 40.0871 150.636 41.7325 149.251 43.1293C147.878 44.5142 146.185 45.5914 144.173 46.3608C142.172 47.1184 139.905 47.4972 137.372 47.4972ZM154.795 47L159.341 19.7273H168.858L168.005 24.9119H168.289C169.106 22.9943 170.13 21.5916 171.361 20.7038C172.592 19.8161 173.936 19.3722 175.392 19.3722C175.818 19.3722 176.226 19.4077 176.617 19.4787C177.019 19.5379 177.416 19.6207 177.806 19.7273L176.386 28.108C175.924 27.9304 175.35 27.8061 174.664 27.7351C173.977 27.6522 173.368 27.6108 172.835 27.6108C171.888 27.6108 171 27.8298 170.172 28.2678C169.355 28.6939 168.656 29.2976 168.076 30.0788C167.508 30.8482 167.129 31.7538 166.94 32.7955L164.596 47H154.795Z" fill="url(#paint3_linear_1079_5307)"/>
<defs>
<linearGradient id="paint0_linear_1079_5307" x1="17.5078" y1="60" x2="50.0363" y2="-37.9639" gradientUnits="userSpaceOnUse">
<stop stop-color="#8FEAFE"/>
<stop offset="1" stop-color="#BDF3FF"/>
</linearGradient>
<linearGradient id="paint1_linear_1079_5307" x1="8.75196" y1="60" x2="41.2804" y2="-37.9639" gradientUnits="userSpaceOnUse">
<stop stop-color="#8FEAFE"/>
<stop offset="1" stop-color="#BDF3FF"/>
</linearGradient>
<linearGradient id="paint2_linear_1079_5307" x1="3.66027e-06" y1="60" x2="32.5285" y2="-37.9639" gradientUnits="userSpaceOnUse">
<stop stop-color="#8FEAFE"/>
<stop offset="1" stop-color="#BDF3FF"/>
</linearGradient>
<linearGradient id="paint3_linear_1079_5307" x1="26.2617" y1="58" x2="198.073" y2="58" gradientUnits="userSpaceOnUse">
<stop stop-color="#0058E5"/>
<stop offset="1" stop-color="#00A5EC"/>
</linearGradient>
</defs>
</svg>
