<svg width="32" height="32" viewBox="0 0 32 32" fill="none" xmlns="http://www.w3.org/2000/svg">
<path d="M26.9663 4H5.03394C4.64687 3.99929 4.29224 4.21011 4.11541 4.54585C3.93614 4.88611 3.96761 5.29585 4.19663 5.6066L12.2317 16.6494C12.2344 16.6532 12.2373 16.6567 12.24 16.6605C12.532 17.0451 12.69 17.5109 12.6907 17.9895V26.9925C12.689 27.259 12.7964 27.5153 12.9888 27.7045C13.1815 27.8934 13.4434 28 13.7166 28C13.8554 27.9998 13.9929 27.9729 14.1212 27.9208L18.6363 26.2414C19.0407 26.1207 19.3093 25.7483 19.3093 25.3V17.9895C19.31 17.5109 19.468 17.0451 19.7597 16.6605C19.7624 16.6567 19.7654 16.6532 19.768 16.6494L27.8034 5.60636C28.0324 5.29585 28.0639 4.88634 27.8846 4.54608C27.708 4.21011 27.3531 3.99929 26.9663 4Z" fill="#BBBBBB"/>
</svg>
