<svg width="24" height="24" viewBox="0 0 24 24" fill="none" xmlns="http://www.w3.org/2000/svg">
<rect width="24" height="24" fill="white"/>
<path d="M20.8088 12.2025C20.8088 11.61 20.7563 11.0475 20.6663 10.5H12.1913V13.8825H17.0438C16.8263 14.9925 16.1888 15.93 15.2438 16.5675V18.8175H18.1388C19.8338 17.25 20.8088 14.94 20.8088 12.2025Z" fill="#4285F4"/>
<path d="M12.1913 21C14.6213 21 16.6538 20.19 18.1388 18.8175L15.2438 16.5675C14.4338 17.1075 13.4063 17.4375 12.1913 17.4375C9.84381 17.4375 7.85631 15.855 7.14381 13.7175H4.15881V16.035C5.63631 18.975 8.67381 21 12.1913 21Z" fill="#34A853"/>
<path d="M7.14378 13.7176C6.95628 13.1776 6.85878 12.6001 6.85878 12.0001C6.85878 11.4001 6.96378 10.8226 7.14378 10.2826V7.96509H4.15878C3.54378 9.18009 3.19128 10.5451 3.19128 12.0001C3.19128 13.4551 3.54378 14.8201 4.15878 16.0351L7.14378 13.7176Z" fill="#FBBC05"/>
<path d="M12.1913 6.5625C13.5188 6.5625 14.7038 7.02 15.6413 7.9125L18.2063 5.3475C16.6538 3.8925 14.6213 3 12.1913 3C8.67381 3 5.63631 5.025 4.15881 7.965L7.14381 10.2825C7.85631 8.145 9.84381 6.5625 12.1913 6.5625Z" fill="#EA4335"/>
</svg>
