<svg width="24" height="24" viewBox="0 0 24 24" fill="none" xmlns="http://www.w3.org/2000/svg">
<g id="24px / Instagram">
<path id="Vector" d="M16.75 4H8.25C5.90279 4 4 5.90279 4 8.25V16.75C4 19.0972 5.90279 21 8.25 21H16.75C19.0972 21 21 19.0972 21 16.75V8.25C21 5.90279 19.0972 4 16.75 4Z" stroke="white" stroke-width="1.5" stroke-linecap="round" stroke-linejoin="round"/>
<path id="Vector_2" d="M15.9621 11.9866C16.0701 12.7148 15.9457 13.4585 15.6067 14.112C15.2676 14.7654 14.7311 15.2953 14.0736 15.6263C13.416 15.9573 12.6708 16.0725 11.944 15.9555C11.2171 15.8386 10.5457 15.4954 10.0251 14.9749C9.50457 14.4543 9.16141 13.7829 9.04446 13.056C8.9275 12.3292 9.0427 11.584 9.37368 10.9264C9.70466 10.2689 10.2346 9.73238 10.888 9.39332C11.5415 9.05426 12.2852 8.92988 13.0134 9.03786C13.7562 9.14801 14.4439 9.49414 14.9749 10.0251C15.5059 10.5561 15.852 11.2438 15.9621 11.9866Z" stroke="white" stroke-width="1.5" stroke-linecap="round" stroke-linejoin="round"/>
<path id="Vector_3" d="M17 8H17.009" stroke="white" stroke-width="2" stroke-linecap="round" stroke-linejoin="round"/>
</g>
</svg>
