<svg width="24" height="24" viewBox="0 0 24 24" fill="none" xmlns="http://www.w3.org/2000/svg">
<g id="24px / Linkedin">
<path id="Path 1384" d="M16 10C17.3261 10 18.5979 10.5349 19.5355 11.4871C20.4732 12.4392 21 13.7306 21 15.0771V21H17.6667V15.0771C17.6667 14.6283 17.4911 14.1978 17.1785 13.8804C16.866 13.563 16.442 13.3847 16 13.3847C15.558 13.3847 15.134 13.563 14.8215 13.8804C14.5089 14.1978 14.3333 14.6283 14.3333 15.0771V21H11V15.0771C11 13.7306 11.5268 12.4392 12.4645 11.4871C13.4021 10.5349 14.6739 10 16 10Z" stroke="white" stroke-width="1.5" stroke-linecap="round" stroke-linejoin="round"/>
<path id="Rectangle 5387" d="M7 10H3V21H7V10Z" stroke="white" stroke-width="1.5" stroke-linecap="round" stroke-linejoin="round"/>
<path id="Vector" d="M5 7C6.10457 7 7 6.10457 7 5C7 3.89543 6.10457 3 5 3C3.89543 3 3 3.89543 3 5C3 6.10457 3.89543 7 5 7Z" stroke="white" stroke-width="0.75"/>
<path id="Vector_2" d="M5 7.5C6.38071 7.5 7.5 6.38071 7.5 5C7.5 3.61929 6.38071 2.5 5 2.5C3.61929 2.5 2.5 3.61929 2.5 5C2.5 6.38071 3.61929 7.5 5 7.5Z" stroke="white" stroke-width="1.25" stroke-linecap="round" stroke-linejoin="round"/>
</g>
</svg>
