<svg width="737" height="93" viewBox="0 0 737 93" fill="none" xmlns="http://www.w3.org/2000/svg">
<g clip-path="url(#clip0_596_3385)">
<rect width="87.7968" height="21.8614" transform="translate(0 12.9659)" fill="#484848"/>
<path d="M0 12.9951V34.7689L87.7968 34.828V12.9951H0Z" fill="#484848"/>
<path d="M35.1029 18.2142L30.1861 25.4952C29.6747 26.2658 28.7776 26.7315 27.8387 26.7315C26.3097 26.7315 25.0441 25.4752 25.0441 23.9593C25.0441 22.421 26.3097 21.167 27.8494 21.167C28.002 21.1475 28.2067 21.1261 28.3496 21.1261C29.4109 21.1261 30.4923 21.5714 31.227 22.3205L32.6955 20.095C31.5532 18.9224 29.8595 18.1719 28.1653 18.1719C25.0027 18.1719 22.1057 20.7817 22.1057 23.9379C22.1057 27.0754 24.697 29.6439 27.8606 29.6439C29.3905 29.6439 30.9204 28.9966 31.9817 27.9236H35.3686L35.3887 29.6439H38.3281V18.2142H35.103H35.1029ZM33.7578 25.4147L35.3686 23.1711L35.3887 25.4147H33.7579H33.7578Z" fill="white"/>
<path d="M43.9595 29.6415H41.0212V20.8809H38.7361V18.231L46.2437 18.2119V20.8808H43.9595V29.6415V29.6415Z" fill="white"/>
<path d="M56.0385 18.2121L53.1001 18.2128L53.0796 22.4801H49.6104L49.5884 18.2119H46.6523V29.6415H49.6102V25.1295H53.1V29.6415H56.0384V18.2119L56.0385 18.2121Z" fill="white"/>
<path d="M79.5853 18.2119V23.5307L75.5456 18.2119L72.8715 18.2305L72.8514 22.3991C72.1781 19.9712 69.8721 18.2119 67.3013 18.2119C64.1391 18.2119 61.5474 20.7794 61.5474 23.9355C61.5474 24.949 61.8531 25.9782 62.3421 26.8697H59.4312V18.2119H56.437V29.6415H63.282V28.0423C64.3634 29.0343 65.8324 29.6415 67.3013 29.6415C69.8721 29.6415 72.1376 27.9213 72.8514 25.4929L72.8715 29.6415H75.8313V24.0793L79.8491 29.6415H82.5213L82.5251 18.2119H79.5857H79.5853ZM67.3014 26.8497C65.6896 26.8497 64.3635 25.5553 64.3635 23.9355C64.3635 22.3382 65.6896 21.0237 67.3014 21.0237C68.9346 21.0237 70.2607 22.3382 70.2607 23.9355C70.2607 25.5553 68.9346 26.8497 67.3014 26.8497Z" fill="white"/>
<path d="M18.5524 26.8697V25.27H21.7058L21.7002 22.4796H18.5524V21.0237H22.0282L22.0222 18.2119L15.3298 18.2305V22.1558C14.6361 20.0117 12.6357 18.4329 10.3507 18.2305L5.27002 18.2119V29.6411H10.3716C12.6357 29.4396 14.6361 27.8617 15.3298 25.7372V29.6411H22.0283L22.0223 26.8697H18.5526H18.5524ZM12.0852 25.6758C11.9023 26.4454 11.1672 26.9902 10.3715 27.0107H8.49448V20.8804H10.3715C11.1672 20.8804 11.9023 21.4494 12.0852 22.2372C12.2695 22.7635 12.3714 23.3702 12.3714 23.9355C12.3714 24.5237 12.2695 25.1295 12.0852 25.6758Z" fill="white"/>
</g>
<path d="M167.443 15.9139C168.03 14.7881 166.13 15.1048 166.13 15.1048C165.45 15.1048 165.145 15.9256 165.004 16.1601L162.952 20.2056C162.565 20.874 161.287 23.7352 160.865 24.3684C160.83 23.7235 160.877 22.4336 160.888 22.1287C160.97 20.9092 161.053 19.9828 161.181 18.8689C161.275 18.0011 161.463 17.0278 161.287 16.1601C161.17 15.6207 160.994 15.5855 160.22 15.5034C159.411 15.4214 158.86 16.594 158.59 17.1451C157.605 19.1855 156.503 21.1789 155.623 23.2662C155.365 23.8759 155.049 24.4857 154.779 25.0837C154.462 25.8108 154.169 26.5261 153.829 27.2414C153.466 27.9918 152.328 30.4543 152.012 31.2283C151.66 32.0725 151.589 32.7527 152.997 32.7175C153.219 32.7175 153.712 32.7644 154.322 32.1077C154.802 31.5918 154.896 31.111 155.178 30.3957C156.186 27.8628 156.901 26.186 158.004 23.6766C158.109 23.4303 158.355 22.715 158.602 22.1639C158.59 22.9496 158.461 23.8877 158.402 24.5092C158.215 26.784 158.086 28.9768 157.886 31.2283C157.863 31.5331 157.781 31.8966 157.922 32.1781C158.062 32.4595 158.414 32.5299 158.696 32.565C159.821 32.7058 159.939 32.1429 160.29 31.369C160.607 30.6771 160.795 30.1143 161.076 29.4107C161.944 27.2414 162.858 25.0955 163.867 22.9847C164.125 22.4453 164.383 21.9177 164.664 21.39C165.18 20.4167 165.602 19.5021 166.165 18.4233C166.587 17.6493 166.998 16.7699 167.443 15.9139ZM206.081 22.0232C205.952 20.7216 204.17 21.3783 203.103 21.5776C202.704 21.648 201.473 21.8825 200.054 22.1522C199.995 20.6864 200.019 20.9796 200.007 20.0884C199.972 18.7985 199.901 17.7901 199.831 16.6526C199.784 15.9373 199.679 14.9406 198.389 15.1282C196.888 15.3393 196.641 16.0898 196.243 16.9927C195.199 19.3496 195.234 19.3614 194.05 21.988C193.956 22.1874 193.522 23.2427 193.452 23.4538C193.405 23.4655 193.311 23.489 193.194 23.5242C192.713 23.6297 192.127 23.7587 191.482 23.8994L191.494 23.8408C191.646 22.6447 191.834 21.4486 191.998 20.2525C192.15 19.162 192.315 17.3796 192.443 16.2891C192.584 15.1165 191.224 15.1399 191.224 15.1399C190.391 15.093 190.075 15.3393 189.547 16.0194C188.644 17.192 187.554 18.4584 186.592 19.7483C184.845 22.0818 183.567 23.8408 181.984 26.186C181.526 26.8661 180.823 27.898 180.213 28.7071C179.803 27.898 179.451 27.0068 179.111 26.186C178.618 25.0134 178.255 24.2864 178.02 23.5124C177.809 22.8323 178.067 22.7385 178.571 22.3515C180.025 21.2493 181.667 20.4871 183.156 19.4317C184.212 18.6812 185.478 17.8487 186.51 17.0748C186.51 17.0748 187.108 16.723 187.436 16.2774C187.847 15.7145 186.686 15.1282 186.686 15.1282C186.029 15.0227 185.666 15.1751 185.208 15.3862C184.739 15.5973 184.13 16.078 183.731 16.3946C182.851 17.0748 181.737 17.8839 180.87 18.564C179.803 19.3965 179.076 19.9125 177.903 20.6043L180.881 16.1484C181.855 14.8937 179.275 14.5419 178.29 15.867C177.375 17.0513 176.754 18.0949 176.039 19.1737C174.315 21.7418 172.896 24.4388 171.477 27.2648C170.938 28.3436 170.41 29.4693 169.917 30.5833C169.683 31.1227 168.991 32.3657 169.941 32.4947C171.97 32.7527 172.298 31.7911 172.755 30.6302C173.506 28.7189 173.752 28.3671 174.233 27.1827C174.702 26.0336 175.042 25.3769 175.57 24.3919C175.581 24.3802 175.734 24.1339 175.734 24.1339C175.827 24.3333 176.449 26.3971 176.531 26.6316C176.953 27.7456 177.692 30.3488 178.114 31.5331C178.419 32.5181 178.501 32.7996 179.826 32.7644C180.483 32.7527 180.764 32.4947 181.198 31.6738C181.632 30.853 183.508 27.3586 183.508 27.3586C184.071 27.2648 184.88 27.1241 185.408 27.0303C185.502 27.0186 185.713 26.9717 186.006 26.913C186.205 26.8896 186.369 26.8544 186.498 26.8192C186.51 26.8192 186.51 26.8192 186.522 26.8075C187.038 26.702 187.694 26.573 188.41 26.4322C188.281 27.0772 187.882 28.4961 187.8 28.8596C187.8 28.8596 186.932 32.2367 188.058 32.4126C188.761 32.5181 189.125 32.4009 189.125 32.4009C190.438 32.2484 190.462 30.4778 190.462 30.4778L191.177 25.8928C191.693 25.7873 192.209 25.6818 192.713 25.588L191.165 30.8178C190.943 31.5566 190.778 32.5064 192.103 32.5064C193.182 32.565 193.253 31.8849 193.253 31.8849C193.276 31.7794 194.132 29.0237 194.343 28.0387C194.484 27.4055 194.988 25.7756 195.187 25.1189C195.75 25.0134 196.172 24.9313 196.372 24.8961C196.606 24.8609 197.064 24.7789 197.662 24.685C197.65 25.2948 197.662 26.1391 197.673 26.2564C197.802 28.1091 197.662 30.0322 198.049 31.8497C198.107 32.1429 198.225 32.5181 198.6 32.5181C199.045 32.5181 199.186 32.4712 199.655 32.4361C201.015 32.3188 200.769 30.9468 200.687 30.0791C200.593 29.1175 200.499 28.3084 200.37 27.3469C200.265 26.5612 200.195 25.5293 200.183 24.2864V24.2629C202.411 23.8877 204.815 23.4772 205.166 23.4186C205.729 23.2662 206.198 23.3131 206.081 22.0232ZM188.668 24.4857C188.668 24.4974 188.656 24.4974 188.656 24.5092C187.096 24.8492 185.631 25.1775 184.81 25.3652C185.631 23.9932 189.242 18.9978 189.793 18.4115C189.488 19.9594 188.996 22.8323 188.668 24.4857ZM197.673 22.5157V22.5978C196.923 22.7385 196.219 22.8792 195.656 22.9847C196.372 21.132 197.122 18.8571 197.568 17.708C197.533 18.564 197.709 21.6714 197.673 22.5157ZM175.804 16.9927C176.039 16.5588 176.566 15.7028 175.91 15.3745C175.523 15.1868 175.007 15.0696 174.608 15.2689C174.28 15.4448 174.033 15.7849 173.869 16.1015L171.36 20.0532C170.949 20.6161 170.562 21.3196 169.73 21.4134C169.179 21.4721 168.78 21.2375 168.792 20.745C168.804 20.2408 169.097 19.5724 169.319 19.1386C169.976 17.8956 170.058 17.4734 170.691 16.2422C171.301 15.0578 169.308 14.7881 168.815 15.6442C168.463 16.2539 167.783 17.4031 167.631 17.7901C167.349 18.4936 165.239 21.8473 166.153 23.1724C167.326 24.6733 170.445 22.3046 168.85 25.0368C167.561 27.2296 166.751 28.4843 165.626 30.513C165.379 30.9468 165.075 31.3807 164.993 31.8966C164.875 32.6237 165.872 32.6119 166.306 32.5885C167.068 32.5299 167.432 32.1781 167.736 31.4862C167.901 31.1227 168.123 30.6771 168.288 30.3136C169.765 27.0889 171.336 24.2864 173.283 21.1672C174.209 19.6897 175.03 18.4233 175.804 16.9927Z" fill="#484848"/>
<g clip-path="url(#clip1_596_3385)">
<path fill-rule="evenodd" clip-rule="evenodd" d="M311.509 33.1638C307.704 35.9768 302.17 37.4755 297.397 37.4755C290.711 37.4755 284.716 35.0084 280.15 30.9041C279.804 30.5813 280.104 30.1432 280.542 30.3969C285.453 33.256 291.518 34.9623 297.789 34.9623C302.009 34.9623 306.666 34.0861 310.955 32.2645C311.601 32.0109 312.131 32.7026 311.509 33.1638Z" fill="#484848"/>
<path fill-rule="evenodd" clip-rule="evenodd" d="M313.099 31.345C312.615 30.7224 309.871 31.0453 308.649 31.2067C308.28 31.2528 308.211 30.93 308.557 30.6994C310.747 29.1545 314.321 29.6157 314.736 30.1229C315.151 30.6302 314.621 34.2272 312.569 35.9335C312.246 36.1871 311.946 36.0488 312.085 35.7029C312.546 34.55 313.583 31.9906 313.099 31.345Z" fill="#484848"/>
<path d="M308.719 19.8601V18.3614C308.719 18.1308 308.88 17.9925 309.088 17.9925H315.775C315.982 17.9925 316.167 18.1539 316.167 18.3614V19.6296C316.167 19.8371 315.982 20.1138 315.659 20.5749L312.201 25.5093C313.492 25.4862 314.852 25.6707 316.005 26.3163C316.259 26.4546 316.328 26.6852 316.351 26.8927V28.4837C316.351 28.7143 316.121 28.9679 315.867 28.8296C313.815 27.7459 311.071 27.6306 308.811 28.8526C308.581 28.9679 308.327 28.7373 308.327 28.5068V26.985C308.327 26.7544 308.327 26.3393 308.581 25.9704L312.593 20.2291H309.111C308.904 20.2291 308.719 20.0677 308.719 19.8601ZM284.347 29.1524H282.318C282.134 29.1293 281.972 28.991 281.949 28.8065V18.3845C281.949 18.1769 282.134 18.0155 282.341 18.0155H284.232C284.439 18.0155 284.578 18.1769 284.601 18.3614V19.7218H284.647C285.131 18.4075 286.076 17.785 287.322 17.785C288.59 17.785 289.397 18.4075 289.95 19.7218C290.434 18.4075 291.564 17.785 292.763 17.785C293.616 17.785 294.539 18.1308 295.115 18.9378C295.761 19.814 295.622 21.0822 295.622 22.212V28.8065C295.622 29.014 295.438 29.1754 295.23 29.1754H293.224C293.017 29.1524 292.855 28.991 292.855 28.8065V23.2727C292.855 22.8346 292.902 21.7278 292.809 21.3128C292.648 20.6211 292.21 20.4135 291.61 20.4135C291.126 20.4135 290.596 20.7363 290.388 21.2667C290.181 21.797 290.204 22.6732 290.204 23.2727V28.8065C290.204 29.014 290.019 29.1754 289.812 29.1754H287.783C287.575 29.1524 287.414 28.991 287.414 28.8065V23.2727C287.414 22.1198 287.598 20.3905 286.169 20.3905C284.716 20.3905 284.762 22.0506 284.762 23.2727V28.8065C284.739 28.991 284.578 29.1524 284.347 29.1524ZM321.931 17.785C324.952 17.785 326.589 20.3674 326.589 23.6647C326.589 26.8466 324.79 29.3829 321.931 29.3829C318.98 29.3829 317.366 26.8005 317.366 23.5724C317.343 20.3213 318.98 17.785 321.931 17.785ZM321.931 19.9293C320.432 19.9293 320.34 21.9814 320.34 23.2496C320.34 24.5178 320.317 27.2386 321.908 27.2386C323.476 27.2386 323.568 25.0481 323.568 23.7108C323.568 22.8346 323.522 21.7739 323.268 20.9439C323.038 20.206 322.577 19.9293 321.931 19.9293ZM330.485 29.1524H328.456C328.249 29.1293 328.087 28.9679 328.087 28.7834V18.3383C328.11 18.1539 328.272 17.9925 328.479 17.9925H330.37C330.555 17.9925 330.693 18.1308 330.739 18.2922V19.8832H330.785C331.362 18.4536 332.146 17.785 333.552 17.785C334.451 17.785 335.351 18.1078 335.927 19.007C336.457 19.8371 336.457 21.2436 336.457 22.2581V28.8296C336.434 29.014 336.273 29.1524 336.065 29.1524H334.036C333.852 29.1293 333.69 28.991 333.667 28.8296V23.1574C333.667 22.0045 333.806 20.3444 332.399 20.3444C331.915 20.3444 331.454 20.6672 331.223 21.1744C330.947 21.82 330.9 22.4426 330.9 23.1574V28.7834C330.877 28.991 330.693 29.1524 330.485 29.1524ZM305.445 29.1293C305.307 29.2446 305.122 29.2677 304.961 29.1754C304.292 28.622 304.154 28.3453 303.785 27.815C302.678 28.9448 301.871 29.2907 300.441 29.2907C298.735 29.2907 297.398 28.2301 297.398 26.1318C297.398 24.4717 298.297 23.3649 299.565 22.8115C300.672 22.3273 302.217 22.2351 303.393 22.0967V21.8431C303.393 21.3589 303.439 20.7825 303.139 20.3674C302.885 19.9985 302.424 19.8371 302.009 19.8371C301.225 19.8371 300.534 20.2291 300.372 21.0591C300.326 21.2436 300.211 21.4281 300.026 21.4281L298.066 21.2205C297.905 21.1744 297.721 21.0591 297.767 20.8055C298.228 18.4075 300.372 17.6927 302.309 17.6927C303.301 17.6927 304.592 17.9464 305.376 18.7073C306.367 19.6296 306.275 20.8747 306.275 22.212V25.3709C306.275 26.3163 306.667 26.7313 307.036 27.2616C307.174 27.4461 307.197 27.6767 307.036 27.792C306.598 28.1378 305.86 28.7834 305.445 29.1293ZM303.393 24.1719V23.7338C301.917 23.7338 300.372 24.0566 300.372 25.786C300.372 26.6621 300.833 27.2616 301.617 27.2616C302.194 27.2616 302.701 26.9158 303.024 26.3393C303.416 25.6246 303.393 24.9559 303.393 24.1719ZM278.306 29.1754C277.637 28.622 277.499 28.3453 277.13 27.815C276.023 28.9448 275.216 29.2907 273.787 29.2907C272.081 29.2907 270.743 28.2301 270.743 26.1318C270.743 24.4717 271.642 23.3649 272.911 22.8115C274.017 22.3273 275.562 22.2351 276.738 22.0967V21.8431C276.738 21.3589 276.784 20.7825 276.485 20.3674C276.231 19.9985 275.77 19.8371 275.355 19.8371C274.571 19.8371 273.879 20.2291 273.718 21.0591C273.671 21.2436 273.556 21.4281 273.372 21.4281L271.412 21.2205C271.25 21.1744 271.066 21.0591 271.112 20.8055C271.573 18.4075 273.718 17.6927 275.654 17.6927C276.646 17.6927 277.937 17.9464 278.721 18.7073C279.713 19.6296 279.62 20.8747 279.62 22.212V25.3709C279.62 26.3163 280.012 26.7313 280.381 27.2616C280.52 27.4461 280.543 27.6767 280.381 27.792C279.943 28.1378 279.205 28.7834 278.79 29.1293C278.652 29.2446 278.467 29.2677 278.306 29.1754ZM276.761 24.1719V23.7338C275.286 23.7338 273.741 24.0566 273.741 25.786C273.741 26.6621 274.202 27.2616 274.986 27.2616C275.562 27.2616 276.069 26.9158 276.392 26.3393C276.784 25.6246 276.761 24.9559 276.761 24.1719Z" fill="#484848"/>
</g>
<path d="M437.636 24.9449C437.615 25.0381 437.593 25.1121 437.582 25.1877C437.441 26.1409 437.302 27.0942 437.162 28.0475C437.004 29.1211 436.849 30.1952 436.686 31.2683C436.607 31.7918 436.422 31.9465 435.884 31.9481C434.865 31.9512 433.845 31.9491 432.826 31.9486C432.749 31.9486 432.67 31.9475 432.594 31.9371C432.209 31.8861 431.962 31.5813 432.008 31.1917C432.058 30.763 432.128 30.3364 432.191 29.9087C432.312 29.0872 432.435 28.2657 432.556 27.4442C432.724 26.305 432.89 25.1653 433.058 24.0255C433.268 22.6013 433.48 21.1777 433.691 19.7535C433.848 18.6908 434.007 17.6287 434.16 16.565C434.222 16.1279 434.313 15.8576 435.003 15.8461C435.524 15.8378 436.044 15.8446 436.565 15.844C436.997 15.844 437.43 15.8414 437.861 15.8456C437.982 15.8466 438.103 15.8649 438.224 15.8795C438.48 15.9102 438.644 16.0628 438.747 16.2889C438.789 16.3795 438.826 16.4723 438.863 16.5645C439.681 18.5632 440.498 20.5619 441.317 22.5607C441.349 22.6409 441.388 22.7185 441.434 22.8191C441.516 22.7357 441.517 22.6472 441.528 22.568C441.666 21.6371 441.802 20.7052 441.939 19.7743C442.097 18.7007 442.255 17.6271 442.415 16.5535C442.428 16.466 442.442 16.3769 442.473 16.2946C442.549 16.0863 442.681 15.9284 442.913 15.8862C443.032 15.8649 443.153 15.8466 443.274 15.8461C444.26 15.843 445.246 15.843 446.232 15.8461C446.353 15.8466 446.476 15.8607 446.594 15.8873C446.955 15.9691 447.153 16.2571 447.1 16.6254C447.017 17.2062 446.929 17.7865 446.843 18.3673C446.652 19.6602 446.462 20.9526 446.27 22.2455C446.058 23.6807 445.845 25.1158 445.634 26.5509C445.446 27.8219 445.26 29.0929 445.073 30.364C445.028 30.6708 444.984 30.9776 444.937 31.2839C444.925 31.3605 444.91 31.4376 444.887 31.511C444.818 31.7277 444.675 31.873 444.449 31.9194C444.342 31.9413 444.229 31.9481 444.119 31.9481C443.144 31.9501 442.169 31.947 441.194 31.9507C440.792 31.9522 440.532 31.9017 440.312 31.361C439.485 29.3185 438.644 27.2817 437.806 25.2429C437.764 25.1444 437.74 25.0329 437.636 24.9449Z" fill="#484848"/>
<path d="M460.833 25.662C460.856 24.5608 460.996 23.6101 461.212 22.6678C461.502 21.402 461.997 20.2252 462.716 19.1428C463.567 17.8603 464.659 16.8461 466.06 16.1892C467.173 15.6673 468.349 15.4183 469.578 15.5058C470.686 15.5849 471.731 15.8855 472.663 16.5252C473.682 17.2243 474.414 18.1489 474.857 19.2949C475.326 20.5097 475.531 21.7671 475.414 23.0741C475.303 24.317 475.067 25.5302 474.594 26.6882C474.055 28.0082 473.286 29.1787 472.235 30.1465C471.198 31.1014 470 31.7676 468.616 32.0869C467.799 32.2755 466.978 32.362 466.143 32.2635C465.174 32.1489 464.262 31.8728 463.445 31.3129C462.542 30.6925 461.887 29.8741 461.466 28.8698C461.139 28.0884 460.951 27.269 460.877 26.4251C460.85 26.1267 460.842 25.8271 460.833 25.662ZM470.798 22.7715C470.807 22.3037 470.775 21.8395 470.668 21.3848C470.547 20.8712 470.338 20.3992 469.948 20.0236C469.751 19.8335 469.52 19.7106 469.25 19.6647C468.743 19.5783 468.258 19.6382 467.809 19.907C467.472 20.108 467.189 20.3711 466.937 20.6685C466.508 21.1728 466.214 21.752 465.985 22.3693C465.512 23.6445 465.389 24.9525 465.617 26.2913C465.701 26.7887 465.884 27.2503 466.204 27.6488C466.451 27.9566 466.767 28.1421 467.165 28.1796C467.705 28.2306 468.199 28.1093 468.641 27.791C469.013 27.5227 469.334 27.2029 469.583 26.8179C470.379 25.5865 470.787 24.2378 470.798 22.7715Z" fill="#484848"/>
<path d="M421.699 15.8429C422.175 15.8429 422.651 15.8397 423.127 15.8449C423.259 15.8465 423.394 15.858 423.522 15.8861C423.883 15.9648 424.081 16.2492 424.036 16.6211C424.006 16.8738 423.962 17.1248 423.925 17.377C423.602 19.5565 423.278 21.7359 422.955 23.9154C422.843 24.6713 422.726 25.4261 422.627 26.1835C422.594 26.4341 422.582 26.6956 422.615 26.9446C422.687 27.4853 422.964 27.902 423.483 28.1104C423.856 28.2599 424.244 28.2432 424.617 28.0921C425.241 27.839 425.683 27.3905 425.972 26.7878C426.083 26.5575 426.16 26.3169 426.197 26.0611C426.433 24.4395 426.674 22.8189 426.914 21.1978C427.127 19.7633 427.341 18.3287 427.555 16.8941C427.581 16.719 427.605 16.5435 427.64 16.37C427.694 16.0898 427.862 15.9189 428.149 15.8778C428.258 15.8621 428.368 15.8455 428.478 15.8449C429.453 15.8423 430.428 15.8423 431.403 15.8449C431.513 15.8455 431.624 15.8574 431.731 15.8793C432.131 15.9606 432.336 16.2429 432.284 16.6492C432.247 16.9456 432.198 17.241 432.154 17.5364C432.03 18.3688 431.904 19.2007 431.781 20.0331C431.611 21.1833 431.444 22.334 431.274 23.4836C431.156 24.2832 431.042 25.0833 430.912 25.8809C430.762 26.805 430.499 27.6936 430.038 28.5156C429.601 29.2949 429.066 29.995 428.379 30.5732C427.436 31.3671 426.359 31.875 425.154 32.1339C423.876 32.4079 422.618 32.361 421.389 31.9276C419.753 31.3515 418.676 30.2315 418.184 28.5531C417.888 27.542 417.873 26.5247 418.028 25.4938C418.27 23.8733 418.506 22.2517 418.745 20.6306C418.944 19.2835 419.147 17.9364 419.34 16.5888C419.419 16.0419 419.632 15.8465 420.202 15.8439C420.701 15.8413 421.2 15.8429 421.699 15.8429Z" fill="#484848"/>
<path d="M454.58 20.0278C454.517 20.0101 454.477 19.9908 454.436 19.9888C454.337 19.983 454.237 19.9846 454.137 19.9846C452.586 19.9846 451.035 19.9851 449.484 19.9835C449.351 19.9835 449.217 19.983 449.086 19.9622C448.694 19.8992 448.485 19.6319 448.516 19.2386C448.528 19.0844 448.558 18.9318 448.581 18.7781C448.689 18.0442 448.797 17.3102 448.907 16.5763C448.922 16.4778 448.939 16.3788 448.968 16.284C449.032 16.0788 449.167 15.9397 449.382 15.8949C449.5 15.8704 449.622 15.8574 449.742 15.8454C449.808 15.8386 449.875 15.8438 449.942 15.8438C453.697 15.8438 457.453 15.8433 461.209 15.8459C461.385 15.8459 461.565 15.8548 461.736 15.8913C462.075 15.9647 462.267 16.2762 462.209 16.6184C462.179 16.7883 462.094 16.9273 461.991 17.0602C461.59 17.5764 461.19 18.0926 460.791 18.6104C459.042 20.8837 457.294 23.1575 455.545 25.4312C454.998 26.1423 454.45 26.8528 453.904 27.5644C453.859 27.6222 453.825 27.6868 453.776 27.7634C453.892 27.8222 453.991 27.805 454.086 27.805C455.249 27.8061 456.412 27.8061 457.576 27.8061C457.963 27.8061 458.351 27.804 458.739 27.8077C458.849 27.8087 458.958 27.8254 459.067 27.8384C459.479 27.8874 459.677 28.3083 459.624 28.6135C459.572 28.9188 459.532 29.2266 459.486 29.5334C459.403 30.0919 459.32 30.6508 459.235 31.2092C459.222 31.2967 459.204 31.3837 459.184 31.4697C459.122 31.7374 458.948 31.8895 458.681 31.9296C458.561 31.9479 458.438 31.9479 458.317 31.9479C456.788 31.9489 455.259 31.9484 453.73 31.9484C451.526 31.9484 449.321 31.9484 447.116 31.9479C446.994 31.9479 446.872 31.9473 446.751 31.938C446.179 31.8921 446.049 31.2733 446.253 30.9462C446.294 30.8805 446.338 30.8164 446.385 30.755C448.353 28.189 450.321 25.6229 452.289 23.0569C453.01 22.1167 453.729 21.1749 454.448 20.2331C454.494 20.1742 454.529 20.108 454.58 20.0278Z" fill="#484848"/>
<path d="M401.407 31.456C401.982 30.609 405.724 25.43 406.445 24.4367C406.547 24.295 406.781 24.171 406.994 24.3585C407.005 24.3679 407.193 24.5409 407.203 24.5497C408.164 25.4019 408.859 25.9807 409.82 26.8339C409.864 26.8735 409.91 26.912 409.956 26.9506C410.054 27.0319 410.201 27.0126 410.272 26.9079C410.298 26.8699 410.321 26.8313 410.347 26.7954C411.134 25.7108 411.918 24.6242 412.702 23.5381C413.682 22.1827 414.66 20.8273 415.641 19.4729L415.642 19.4708C415.739 19.338 415.94 19.3588 416.011 19.5067C416.014 19.513 416.016 19.5193 416.019 19.5255C416.305 20.0933 416.478 20.6996 416.614 21.3174C416.836 22.3291 416.785 23.3391 416.599 24.3518C416.298 25.9942 415.575 27.4293 414.502 28.6967C413.451 29.9396 412.164 30.8574 410.64 31.4268C409.753 31.7581 408.833 31.9461 407.88 31.9456C405.953 31.9446 404.026 31.9472 402.1 31.9467C402 31.9467 401.9 31.942 401.802 31.9264C401.631 31.8998 401.494 31.8274 401.406 31.6961C401.357 31.6237 401.358 31.5284 401.407 31.456Z" fill="#484848"/>
<path d="M409.727 23.8067C409.707 23.8432 409.623 23.9719 409.454 23.8474C409.363 23.7802 409.395 23.8093 409.322 23.7473C408.355 22.9191 407.528 22.2065 406.561 21.3761C406.288 21.1298 406.022 21.2428 405.889 21.5428C405.261 22.8378 404.729 23.9187 404.102 25.2142C403.249 26.978 402.395 28.7419 401.54 30.5051C401.462 30.6833 401.354 30.6385 401.366 30.5572C401.49 29.7029 401.616 28.8486 401.742 27.9949C401.931 26.7134 402.12 25.4325 402.309 24.151C402.498 22.8696 402.686 21.5887 402.875 20.3072C403.046 19.1466 403.216 17.9855 403.388 16.8249C403.409 16.6827 403.428 16.5395 403.463 16.3999C403.529 16.1306 403.685 15.9446 403.975 15.9029C404.083 15.8873 404.194 15.8732 404.304 15.8732C406.209 15.8717 408.113 15.8623 410.018 15.8758C411.129 15.8836 412.192 16.1248 413.184 16.64C413.191 16.6437 413.198 16.6473 413.205 16.6509C413.143 16.7874 410.911 21.3631 409.727 23.8067Z" fill="#484848"/>
<path d="M588.312 15.6451C588.466 15.462 588.722 15.4824 588.938 15.4664C589.671 15.455 590.405 15.462 591.137 15.4912C591.2 16.4808 591.133 17.4721 591.178 18.4634C592.291 18.4873 593.404 18.4351 594.517 18.4899C594.546 19.315 594.552 20.1418 594.512 20.9678C593.394 21.012 592.275 20.9766 591.158 20.9872C591.175 22.3756 591.147 23.7649 591.168 25.1533C591.147 25.5601 591.465 25.9129 591.853 25.9943C592.715 26.1835 593.589 25.9483 594.452 25.8766C594.528 26.7132 594.54 27.556 594.454 28.3925C593.396 28.6198 592.308 28.6419 591.23 28.5924C590.297 28.5384 589.363 28.0936 588.831 27.3092C588.434 26.7601 588.277 26.0747 588.282 25.4053C588.287 22.6321 588.285 19.8589 588.283 17.0856C588.288 16.6055 588.25 16.1226 588.312 15.6451Z" fill="#484848"/>
<mask id="mask0_596_3385" style="mask-type:alpha" maskUnits="userSpaceOnUse" x="546" y="17" width="11" height="16">
<path d="M546.013 17.952H556.879V32.3319H546.013V17.952Z" fill="white"/>
</mask>
<g mask="url(#mask0_596_3385)">
<path d="M550.558 21.1408C549.842 21.5096 549.082 22.1198 549.025 22.9846C548.929 23.7116 549.012 24.5074 549.472 25.1061C550.058 25.8958 551.131 26.1894 552.073 26.0134C552.663 25.9064 553.121 25.4687 553.498 25.0318C554.079 24.3483 554.065 23.349 553.827 22.5319C553.402 21.2275 551.778 20.689 550.558 21.1408ZM550.741 18.2774C551.857 17.9573 553.08 18.135 554.109 18.6506C555.552 19.4748 556.615 20.9719 556.831 22.6309C556.873 23.2942 556.89 23.968 556.795 24.6286C556.648 25.3281 556.397 26.0099 556.038 26.6272C555.095 27.9917 553.494 28.9423 551.817 28.9343C550.83 28.9388 549.995 28.3763 549.123 28.0005C549.07 29.4428 549.102 30.8878 549.108 32.3319C548.109 32.3027 547.112 32.331 546.113 32.3142C546.066 27.6954 546.12 23.0766 546.085 18.4578C547.016 18.4516 547.946 18.4578 548.878 18.4507C548.898 18.686 548.919 18.9194 548.944 19.1547C549.526 18.831 550.082 18.4339 550.741 18.2774Z" fill="#484848"/>
</g>
<path d="M570.053 21.0571C569.097 21.2084 568.229 21.9998 568.143 22.9876C568.124 23.5845 568.05 24.2363 568.356 24.7784C569.073 26.2163 571.277 26.4842 572.375 25.3461C573.439 24.2955 573.296 22.2908 572.064 21.4294C571.49 21.0138 570.74 20.9059 570.053 21.0571ZM567.352 19.0029C568.575 18.1451 570.218 17.8763 571.64 18.3617C572.239 18.5032 572.669 18.9693 573.19 19.2655C573.206 19.0055 573.221 18.7464 573.239 18.4855C574.138 18.4572 575.039 18.4484 575.937 18.4953C575.962 21.8504 575.966 25.2064 575.934 28.5624C574.998 28.6021 574.061 28.5951 573.125 28.5659C573.095 28.2829 573.066 27.999 573.038 27.7161C572.234 28.4111 571.225 28.9373 570.139 28.932C568.908 28.9055 567.675 28.4111 566.818 27.5162C566.207 26.9529 565.835 26.195 565.504 25.4469C565.252 24.8632 565.252 24.2142 565.25 23.5907C565.251 22.9469 565.235 22.2837 565.467 21.6717C565.858 20.6468 566.42 19.6272 567.352 19.0029Z" fill="#484848"/>
<path d="M581.687 18.2278C583.726 17.7733 585.967 18.7266 587.132 20.4431C586.382 21.0241 585.597 21.5546 584.84 22.1259C584.386 21.6855 583.942 21.1372 583.279 21.0373C582.583 20.9356 581.803 20.9683 581.229 21.4255C580.106 22.1692 579.918 23.8433 580.599 24.9434C581.362 26.2309 583.423 26.4608 584.431 25.3475C584.605 25.1759 584.774 25.0017 584.944 24.8266C585.663 25.4545 586.532 25.8728 587.269 26.475C586.865 27.1135 586.248 27.5654 585.659 28.0181C584.657 28.7114 583.397 29.0209 582.185 28.9033C579.513 28.6761 577.208 26.169 577.313 23.471C577.302 21.751 578.212 20.069 579.613 19.083C580.246 18.6806 580.954 18.3888 581.687 18.2278Z" fill="#484848"/>
<path d="M599.949 21.0794C599.075 21.3765 598.202 22.122 598.172 23.1107C598.102 23.834 598.18 24.6317 598.664 25.2092C599.613 26.296 601.575 26.3809 602.494 25.2092C603.459 24.1135 603.258 22.1706 602.011 21.373C601.414 20.9662 600.636 20.9149 599.949 21.0794ZM599.714 18.1965C601.712 17.8295 603.89 18.7236 605.032 20.4064C605.839 21.4358 606.07 22.802 605.99 24.0781C605.903 25.5947 605.042 26.9928 603.842 27.8948C603.263 28.3547 602.532 28.5439 601.843 28.7703C599.279 29.4672 596.331 27.8763 595.523 25.34C595.034 23.7509 595.162 21.908 596.107 20.5064C596.958 19.3125 598.256 18.4326 599.714 18.1965Z" fill="#484848"/>
<path d="M562.246 18.5916C562.947 18.3175 563.72 18.3104 564.454 18.4245C564.535 19.3734 564.517 20.3284 564.471 21.2782C563.694 21.2464 562.862 21.157 562.142 21.5152C561.485 21.9202 561.144 22.717 561.146 23.4713C561.124 25.1701 561.177 26.868 561.126 28.5659C560.179 28.6083 559.23 28.6003 558.283 28.5712C558.238 25.9085 558.277 23.2458 558.264 20.5831C558.262 19.8872 558.253 19.1903 558.285 18.4935C559.194 18.4608 560.104 18.4572 561.014 18.4961C561.026 18.8286 561.038 19.1611 561.044 19.4936C561.403 19.1443 561.773 18.7818 562.246 18.5916Z" fill="#484848"/>
<path d="M541.624 20.6702C542.3 20.5783 543.052 20.5385 543.65 20.9258C544.403 21.3361 545.028 22.0984 545.029 22.988C545.032 23.5832 545.112 24.2367 544.785 24.7682C544.368 25.4624 543.691 26.0513 542.87 26.176C542.221 26.2556 541.524 26.2388 540.941 25.9045C540.234 25.5402 539.758 24.8363 539.536 24.0881C539.13 22.6405 540.148 20.9665 541.624 20.6702Z" fill="#484848"/>
<mask id="mask1_596_3385" style="mask-type:alpha" maskUnits="userSpaceOnUse" x="606" y="20" width="7" height="7">
<path d="M606.91 20.4393H612.598V26.3254H606.91V20.4393Z" fill="white"/>
</mask>
<g mask="url(#mask1_596_3385)">
<path d="M609.228 20.7167C610.695 20.3364 612.31 21.4489 612.55 22.9292C612.73 23.8312 612.393 24.7854 611.727 25.4089C610.621 26.6443 608.433 26.3232 607.547 24.9835C606.813 23.9515 606.926 22.411 607.822 21.5099C608.189 21.0996 608.705 20.859 609.228 20.7167Z" fill="#484848"/>
</g>
<path d="M699.701 31.2311C697.462 29.789 694.424 29.536 689.525 30.8953C684.302 32.1227 682.56 32.9095 680.273 31.33C679.394 30.5541 679.079 29.3048 679.315 27.5053C679.86 24.5717 681.335 21.7486 683.953 18.6171C685.415 16.9881 686.771 15.5901 688.562 15.0288C689.934 14.6766 689.806 15.755 689.64 15.9093C689.464 15.9093 689.17 15.9369 688.943 16.0853C688.758 16.2285 688.251 16.6908 688.224 17.3127C688.185 18.2648 689.17 18.0666 689.595 17.5439C690.053 16.9549 690.73 15.8269 690.197 14.7756C689.974 14.4014 689.589 14.1428 689.11 14.0547C687.47 13.961 685.943 14.7426 684.534 15.6066C681.452 17.7475 678.987 20.714 677.592 23.9611C676.788 25.9203 676.06 28.7268 677.151 31.011C677.994 32.5959 679.745 33.4378 681.834 33.2618C683.299 33.1078 685.071 32.6343 686.262 32.3484C687.454 32.0619 693.553 29.9654 695.557 33.6145C695.557 33.6145 696.224 32.3208 697.889 32.2932C699.258 32.1668 701.234 32.6896 702.672 33.7461C702.193 33.0253 700.834 31.9631 699.701 31.2311Z" fill="#484848"/>
<path d="M690.147 18.9847C689.007 18.2363 686.714 19.6672 684.877 22.1217C683.198 24.3233 682.473 26.8821 683.262 28.0654C684.436 29.4578 686.615 27.4325 687.542 26.3485L687.662 26.2218C688.292 25.5449 688.779 24.7303 689.25 23.9486C689.25 23.9486 689.683 23.2332 689.704 23.2001C689.972 23.1508 690.294 23.0737 690.657 22.9691C690.652 22.9855 689.267 25.3135 689.409 26.4691C689.453 26.8216 689.419 28.1094 690.676 28.5001C692.352 28.7809 693.69 27.4819 694.871 26.3262C694.871 26.3262 695.072 26.1337 695.186 26.0239C695.157 26.1391 695.119 26.2929 695.119 26.2929C694.629 27.999 695.29 28.357 695.704 28.4891C696.954 28.8526 698.447 27.0363 698.452 27.0363C698.414 27.6084 698.3 28.0817 698.903 28.4615C699.473 28.6653 700.049 28.3546 700.487 28.0629C702.064 26.9513 703.335 25.2113 704.361 23.7073H703.706C703.699 23.7073 702.091 26.0376 701.047 26.5441C701.045 26.5441 700.855 26.6417 700.746 26.5645C700.61 26.4489 700.664 26.2085 700.747 26.0382C700.753 26.0272 704.778 19.0449 704.778 19.0449H702.878C702.878 19.0449 702.67 19.3808 702.653 19.4029C702.64 19.3919 702.61 19.3341 702.589 19.3065C701.411 17.6775 698.744 20.1831 696.737 23.0889C695.964 24.2062 694.979 25.4642 693.959 26.3723C693.959 26.3723 692.447 27.7581 691.801 26.7624C691.565 26.3441 691.638 25.7325 691.771 25.3308C692.523 23.1899 693.819 21.2469 695.294 20.0746C695.71 19.7501 696.163 19.6563 696.387 19.7939C696.601 19.9207 696.636 20.2341 696.5 20.4488C696.157 20.4378 695.882 20.5422 695.658 20.7734C695.217 21.2357 695.064 21.6816 695.204 22.0999C695.885 23.0685 697.242 21.1532 697.177 19.9865C697.153 19.5682 696.93 19.172 696.597 18.9792C696.1 18.6821 695.343 18.7591 694.853 18.9959C694.197 19.2434 693.159 20.1074 692.552 20.779C691.789 21.6211 690.48 22.5566 690.071 22.4519C690.205 22.0941 691.31 19.8322 690.147 18.9847ZM699.311 22.3309C699.681 21.8191 700.757 20.4487 701.02 20.2176C701.902 19.4413 702.255 19.7829 702.285 20.0248C701.462 21.4998 700.49 23.1894 699.576 24.7085C699.578 24.7031 699.29 25.1432 699.29 25.1432C698.887 25.7594 698.48 26.2878 697.817 26.6565C697.723 26.6842 697.567 26.6953 697.463 26.6179C697.338 26.5353 697.289 26.3977 697.303 26.2546C697.343 25.7814 697.825 24.3343 699.311 22.3309ZM688.971 23.2169C688.971 23.2169 688.954 23.2666 688.946 23.2828C688.944 23.2828 688.118 24.631 688.118 24.631C687.619 25.2971 686.996 26.1338 686.217 26.5354C685.986 26.6124 685.667 26.6621 685.505 26.4586C685.16 26.0458 685.338 25.4733 685.482 25.0112L685.533 24.846C685.947 23.7234 686.603 22.7326 687.242 21.8135C687.25 21.8081 687.268 21.8026 687.275 21.8026C687.276 21.8081 687.279 21.8081 687.28 21.8191C687.681 22.5895 688.433 22.9471 688.995 23.1124C688.998 23.1124 689.002 23.1179 689.002 23.129C689.002 23.1454 688.993 23.1675 688.971 23.2169ZM689.754 21.6265C689.75 21.6375 689.386 22.474 689.386 22.474C689.333 22.518 689.25 22.4961 689.154 22.474L688.991 22.4464C688.477 22.2869 688.089 21.9456 687.97 21.5384C687.805 20.7459 688.482 20.124 688.78 19.8984C689.067 19.7001 689.512 19.5956 689.77 19.7993C689.929 19.9865 689.99 20.2286 689.99 20.4929C689.99 20.8505 689.879 21.2522 689.754 21.6265ZM713.784 24.18C713.6 23.7838 713.165 23.5306 712.702 23.5581C711.196 23.6958 709.723 24.934 708.95 26.7115C708.544 27.6252 708.323 28.3791 708.177 29.5788C708.646 29.0396 709.601 28.1536 710.684 27.6693C710.684 27.6693 710.832 26.5191 711.584 25.4954C711.868 25.0715 712.438 24.3891 713.077 24.5706C713.636 24.7578 713.44 26.3044 712.697 27.801C712.148 28.9019 711.307 30.0029 710.456 30.7622C709.704 31.4006 708.591 32.1711 707.618 31.5767C707.005 31.2137 706.692 30.4539 706.758 29.4744C707.051 26.6952 708.316 24.3286 710.127 21.632C711.993 19.1279 714.051 16.5577 716.823 15.1871C717.389 14.901 717.912 14.835 718.365 15.0111C718.365 15.0111 715.763 16.442 714.522 19.0893C714.207 19.7608 713.768 20.6686 714.21 21.4722C714.441 21.8904 714.851 21.9235 715.181 21.9015C716.701 21.5492 717.684 20.1293 718.486 18.8306C718.952 17.8455 719.365 16.8658 719.365 15.7761C719.365 15.644 719.358 15.468 719.347 15.3358C720.074 14.9507 721.563 15.633 721.563 15.633C722.727 16.0184 725.206 17.9172 726.042 18.2803C726.45 17.807 727.12 17.0917 727.497 16.7339L726.951 16.3981C726.076 15.8642 725.152 15.3578 724.242 14.8571C722.176 13.729 720.494 14.1252 719.638 14.4334C719.301 14.5544 718.994 14.659 718.994 14.659C718.359 13.9656 717.317 14.0315 716.549 14.2187C713.788 15.0112 711.225 16.9428 708.476 20.2946C706.456 22.9198 705.203 25.1874 704.535 27.4272C704.02 28.9351 703.863 31.153 705.12 32.4684C706.188 33.5854 707.605 33.3434 708.606 32.9418C710.774 31.8741 712.722 29.5735 713.693 26.9262C713.927 26.1393 714.187 25.0276 713.784 24.18ZM718.769 15.8863C718.482 19.1774 715.923 21.1093 715.29 21.2632C714.907 21.3401 714.252 21.1696 714.837 19.7884C715.697 17.928 717.166 16.3487 718.742 15.5396C718.781 15.6772 718.78 15.765 718.769 15.8863ZM733.944 16.3044C732.568 17.086 731.141 17.5922 729.414 17.4161C728.936 17.9556 728.47 18.5114 728.04 19.0837C730.464 19.7001 733.033 18.3298 734.466 17.0256C735.982 15.7101 736.76 14.0537 736.76 14.0537C736.76 14.0537 735.623 15.3524 733.944 16.3044ZM707.938 19.0451H706.132L705.114 20.6995H706.919L707.938 19.0451Z" fill="#484848"/>
<path d="M729.405 31.3849C729.211 31.517 728.939 31.4155 729.041 31.1129C729.295 30.3424 730.304 28.7722 730.304 28.7722L733.116 23.7844H731.19C731.099 23.9348 730.903 24.2802 730.903 24.2802C730.814 24.1317 730.547 23.8017 730.438 23.7303C729.967 23.4329 729.276 23.5735 728.8 23.8431C726.729 25.054 725.218 27.4465 724.027 29.3123C724.027 29.3123 722.772 31.3864 722.076 31.5406C721.532 31.5847 721.588 30.8524 721.612 30.6817C721.822 29.4487 722.31 28.2766 722.802 27.2144C723.802 26.521 724.944 25.6129 725.981 24.6168C728.232 22.4647 730.13 20.0267 730.408 19.4818C730.408 19.4818 730.108 19.5425 729.753 19.5534C728.021 21.9694 724.477 25.4808 723.402 26.0035C723.878 24.8585 726.954 19.3937 729.571 16.7796L729.983 16.3832C730.62 15.7613 731.279 15.1229 731.794 15.0183C731.848 15.0128 731.918 15.0183 731.978 15.1451C732.001 15.6293 731.821 15.9871 731.614 16.3943L731.324 16.9888C731.324 16.9888 731.735 16.9117 732.004 16.8234C732.317 16.2348 732.664 15.5742 732.536 14.7874C732.493 14.5342 732.31 14.3416 732.07 14.2975C731.29 14.1489 730.439 14.7266 729.754 15.1946L729.727 15.211C726.207 17.9683 723.235 21.9419 720.637 27.3684C720.449 27.5113 719.721 27.6821 719.597 27.5994C719.854 27.0712 720.177 26.3611 720.339 25.5906C720.367 25.3703 720.393 25.1449 720.393 24.9248C720.393 24.4511 720.279 24.0054 719.855 23.6974C719.357 23.4497 718.742 23.5654 718.328 23.7523C716.47 24.5228 715.082 26.4272 714.081 27.9955C713.542 28.9919 713.005 30.0591 712.856 31.2811C712.751 32.2385 712.964 32.855 713.509 33.1633C714.069 33.4493 714.773 33.152 715.05 33.009C716.932 32.0183 718.246 30.0317 719.283 28.2155C719.324 28.21 719.89 28.1937 720.318 28.0834C720.323 28.0834 720.326 28.0834 720.335 28.0891C720.311 28.1714 720.09 28.832 720.09 28.832C719.433 30.7581 719.129 32.068 719.749 32.844C720.636 33.9392 722.104 32.8056 723.298 31.3084C723.041 33.1024 723.971 33.3833 724.68 33.2458C725.494 33.0258 726.402 32.156 726.823 31.7104C726.687 32.2331 726.724 33.1689 727.465 33.2623C727.972 33.3562 728.352 33.08 728.792 32.8433C730.369 31.9847 732.256 29.1235 732.746 28.2963H732.104C731.407 29.3493 730.521 30.7297 729.405 31.3849ZM715.251 31.1933C715.151 31.0446 715.118 30.8822 715.115 30.7065C715.096 29.6273 716.257 27.6948 717.076 26.642H717.078C717.421 27.394 718.199 27.8774 718.669 28.0812C718.086 29.3801 716.086 32.1619 715.251 31.1933ZM718.998 27.5005C718.942 27.5393 717.962 27.2088 717.772 26.3008C717.611 25.519 718.15 24.9081 718.67 24.6003C718.894 24.424 719.231 24.3637 719.478 24.4514C719.707 24.6058 719.769 24.8812 719.769 25.1778C719.769 25.3598 719.745 25.5468 719.724 25.7173L719.719 25.756C719.555 26.3661 719.312 26.9525 718.998 27.5005ZM726.863 30.8466C726.863 30.8466 726.677 31.0117 726.677 31.0117C726.413 31.2483 726.141 31.5014 725.812 31.3748C725.721 31.3418 725.657 31.2208 725.642 31.127C725.627 30.45 725.932 29.8228 726.228 29.2119L726.303 29.0523C727.154 27.6324 728.142 25.9594 729.594 24.7983C729.838 24.6218 730.104 24.4735 730.384 24.5891C730.448 24.6496 730.524 24.7542 730.524 24.8587C730.524 24.8918 730.494 24.9798 730.477 25.0073C730.072 25.6625 729.686 26.3503 729.31 27.0107C728.576 28.315 727.815 29.6631 726.863 30.8466Z" fill="#484848"/>
<path d="M97.9726 88.5641C102.578 88.5641 106.326 84.7918 106.326 80.1558C106.326 75.5171 102.578 71.7476 97.9726 71.7476C93.3659 71.7476 89.6193 75.5171 89.6193 80.1558C89.6193 84.7918 93.3659 88.5641 97.9726 88.5641ZM97.9726 77.1576C99.614 77.1576 100.951 78.5026 100.951 80.1549C100.951 81.8073 99.6131 83.1504 97.9717 83.1504C96.3294 83.1504 94.9945 81.8073 94.9945 80.154C94.9945 78.4998 96.3303 77.1558 97.9717 77.1558L97.9726 77.1576ZM66.4569 88.5641C71.0626 88.5641 74.8102 84.7918 74.8102 80.1558C74.8102 75.5171 71.0626 71.7476 66.4569 71.7476C61.852 71.7476 58.1035 75.5171 58.1035 80.1558C58.1035 84.7918 61.852 88.5641 66.4569 88.5641ZM66.4569 77.1576C68.0992 77.1576 69.435 78.5026 69.435 80.1549C69.435 81.8073 68.0992 83.1504 66.4569 83.1504C64.8155 83.1504 63.4806 81.8073 63.4806 80.154C63.4806 78.4998 64.8164 77.1558 66.4569 77.1558V77.1576ZM82.2102 76.9682L79.6456 71.8574H73.6409L79.2494 83.0379V88.3015H85.1718V83.0379L90.7803 71.8574H84.7729L82.2111 76.9682H82.2102Z" fill="#484848"/>
<path d="M223.798 76.7113C223.311 75.3188 221.983 74.3189 220.424 74.3189H220.392C219.378 74.3189 218.465 74.7407 217.815 75.4178C217.164 74.7407 216.25 74.3189 215.238 74.3189H215.205C214.315 74.3189 213.5 74.6451 212.875 75.185V74.9105C212.854 74.6372 212.629 74.4224 212.351 74.4224H209.96C209.667 74.4224 209.431 74.6586 209.431 74.9521V87.9376C209.431 88.2312 209.667 88.4674 209.96 88.4674H212.351C212.617 88.4674 212.837 88.2683 212.872 88.0107L212.87 78.6886C212.87 78.656 212.872 78.6256 212.875 78.5953C212.913 78.1791 213.218 77.8372 213.699 77.7944H213.788H214.039H214.14C214.342 77.8124 214.512 77.8833 214.645 77.9901C214.853 78.1555 214.969 78.4097 214.969 78.6886L214.978 87.9646C214.978 88.2582 215.216 88.4955 215.507 88.4955H217.898C218.181 88.4955 218.41 88.2706 218.423 87.9905L218.422 78.6763C218.421 78.3703 218.563 78.0936 218.812 77.9294C218.934 77.8507 219.081 77.7978 219.251 77.7821H219.34H219.591H219.692C220.21 77.827 220.522 78.2196 220.521 78.6763L220.53 87.9399C220.53 88.2334 220.767 88.4696 221.059 88.4696H223.45C223.741 88.4696 223.979 88.2334 223.979 87.9399V77.9766C223.979 77.2973 223.902 77.0082 223.798 76.7113Z" fill="#484848"/>
<path d="M207.61 74.4527H206.242V72.2369C206.242 72.2346 206.242 72.2324 206.242 72.2301C206.242 71.9636 206.026 71.7476 205.76 71.7476C205.728 71.7476 205.698 71.7521 205.669 71.7577C204.153 72.1739 204.456 74.2738 201.688 74.4527H201.626H201.419C201.379 74.4527 201.341 74.4583 201.304 74.4662H201.301L201.304 74.4673C201.067 74.5202 200.89 74.7294 200.89 74.9813V77.3726C200.89 77.6639 201.127 77.9012 201.419 77.9012H202.862L202.86 88.0411C202.86 88.3301 203.094 88.5641 203.383 88.5641H205.748C206.035 88.5641 206.269 88.3301 206.269 88.0411L206.271 77.9012H207.61C207.901 77.9012 208.139 77.6639 208.139 77.3726V74.9813C208.139 74.69 207.901 74.4527 207.61 74.4527Z" fill="#484848"/>
<path d="M199.005 74.456H196.614C196.322 74.456 196.086 74.6933 196.086 74.9846V79.9291C196.08 80.2351 195.833 80.4803 195.526 80.4803H194.525C194.214 80.4803 193.964 80.2306 193.964 79.9201L193.955 74.9846C193.955 74.6933 193.717 74.456 193.426 74.456H191.035C190.742 74.456 190.506 74.6933 190.506 74.9846V80.4038C190.506 82.4621 191.974 83.9299 194.033 83.9299C194.033 83.9299 195.579 83.9299 195.626 83.9389C195.905 83.9704 196.122 84.2044 196.122 84.4923C196.122 84.7769 195.91 85.0097 195.634 85.0446C195.62 85.0468 195.608 85.0502 195.593 85.0525L192.097 85.0648C191.804 85.0648 191.568 85.3022 191.568 85.5935V87.9836C191.568 88.2761 191.804 88.5123 192.097 88.5123H196.006C198.067 88.5123 199.534 87.0456 199.534 84.9861V74.9846C199.534 74.6933 199.297 74.456 199.005 74.456Z" fill="#484848"/>
<path d="M175.861 78.8415V79.9573V80.3172C175.861 80.6265 175.61 80.8785 175.301 80.8785L173.783 80.8796V77.9226H175.301C175.61 77.9226 175.861 78.1723 175.861 78.4827V78.8415ZM176.071 74.4594H170.844C170.558 74.4594 170.326 74.6922 170.326 74.9779V77.3208C170.326 77.3253 170.327 77.3298 170.327 77.3343C170.327 77.3455 170.326 77.3568 170.326 77.3669V84.8815V87.9713C170.326 88.2592 170.542 88.4943 170.81 88.501H170.855H173.246C173.537 88.501 173.774 88.2648 173.774 87.9724L173.783 84.3383H176.071C177.986 84.3383 179.32 83.0099 179.32 81.0877V77.7145C179.32 75.7922 177.986 74.4594 176.071 74.4594Z" fill="#484848"/>
<path d="M185.781 84.4538V84.8273C185.781 84.8576 185.777 84.8869 185.772 84.915C185.766 84.942 185.759 84.9679 185.75 84.9926C185.675 85.2018 185.466 85.3537 185.218 85.3537H184.222C183.912 85.3537 183.659 85.1175 183.659 84.8273V84.3762C183.659 84.3706 183.657 84.365 183.657 84.3594L183.659 83.1592V83.157V83.0243V82.7836L183.66 82.7802C183.661 82.4911 183.912 82.2572 184.222 82.2572H185.218C185.529 82.2572 185.781 82.4922 185.781 82.7836V84.4538ZM185.401 74.4715H182.083C181.789 74.4715 181.552 74.6942 181.552 74.9675V75.8977C181.552 75.9033 181.553 75.9101 181.553 75.9157C181.553 75.9224 181.552 75.9292 181.552 75.9359V77.2103C181.552 77.4994 181.804 77.7356 182.114 77.7356H185.274C185.523 77.7749 185.721 77.9572 185.75 78.2417V78.5499C185.721 78.821 185.526 79.0189 185.287 79.0414H183.723C181.642 79.0414 180.159 80.4238 180.159 82.3651V85.0747V85.1456C180.159 87.0757 181.434 88.449 183.5 88.449H187.836C188.614 88.449 189.245 87.8597 189.245 87.1342V78.0606C189.245 75.8606 188.112 74.4715 185.401 74.4715Z" fill="#484848"/>
<path d="M338.448 75.2238L337.126 72.9146L334.777 74.0759L333.456 71.7667L331.106 72.928L329.785 70.6188L327.436 71.7801L326.114 69.4709L323.765 70.6322L322.444 68.323L320.095 69.4843L315.089 86.1957L321.149 88.1045C321.549 86.7563 322.777 85.7686 324.219 85.7686C325.994 85.7686 327.436 87.2502 327.436 89.0789V89.1456C327.449 89.4392 327.422 89.7462 327.329 90.0399L333.496 91.9887" fill="#484848"/>
<path d="M320.28 84.8076C319.96 84.7542 319.746 84.4739 319.746 84.1402V75.9313C319.746 75.5442 320.04 75.2506 320.414 75.2506H326.153C326.3 75.2506 326.447 75.2639 326.594 75.2906C327.822 75.5176 328.729 76.6121 328.729 77.9068V84.1402C328.729 84.3271 328.663 84.5006 328.529 84.6341C328.409 84.7542 328.236 84.8343 328.062 84.8343L327.942 84.821C327.622 84.7676 327.408 84.4873 327.408 84.1536V77.9335C327.408 77.3062 326.968 76.7722 326.367 76.6655L326.153 76.6388H324.899V84.1536C324.899 84.3405 324.832 84.514 324.698 84.6475C324.578 84.7676 324.405 84.8477 324.231 84.8477L324.111 84.8343C323.791 84.7809 323.577 84.5006 323.577 84.1669V76.6388H321.068V84.1536C321.068 84.3405 321.001 84.514 320.868 84.6341C320.747 84.7542 320.574 84.8343 320.4 84.8343L320.28 84.8076Z" fill="white"/>
<path d="M329.825 88.3838C329.505 88.3304 329.291 88.0501 329.291 87.7164C329.291 87.5296 329.358 87.356 329.478 87.2359C329.598 87.1158 329.772 87.0357 329.945 87.0357C330.506 87.0357 330.986 86.6619 331.146 86.1147L331.827 83.7655L329.598 76.0638C329.491 75.7034 329.691 75.3163 330.038 75.1962L330.332 75.1828C330.572 75.2229 330.773 75.4097 330.853 75.65L332.508 81.3896L334.19 75.65C334.27 75.3296 334.603 75.1161 334.95 75.1828L334.991 75.1962C335.351 75.3163 335.551 75.7034 335.431 76.0638L333.135 83.9657L332.414 86.5018C332.228 87.0891 331.907 87.5562 331.48 87.8766C331.026 88.2236 330.492 88.4105 329.932 88.4105L329.825 88.3838Z" fill="white"/>
<path d="M288.539 84.7249C288.206 84.6581 287.979 84.3778 287.979 84.0308V71.7775C287.979 71.5773 288.045 71.4037 288.179 71.2703C288.299 71.1368 288.486 71.07 288.673 71.07L288.793 71.0834C289.127 71.1501 289.367 71.4304 289.367 71.7775V75.2613H290.675C290.835 75.2613 290.982 75.2746 291.142 75.3013C292.424 75.5282 293.358 76.6761 293.358 78.0243V81.9752C293.358 83.4969 292.157 84.7382 290.675 84.7382H288.686L288.539 84.7249ZM289.354 83.31H290.662C291.382 83.31 291.97 82.7093 291.97 81.9619V78.0109C291.97 77.3569 291.516 76.7963 290.889 76.6895L290.662 76.6628H289.354V83.31Z" fill="#484848"/>
<path d="M297.309 84.781C296.027 84.5541 295.106 83.4062 295.106 82.0581V77.9469C295.106 77.1995 295.387 76.5187 295.894 75.9848C296.401 75.4642 297.069 75.1706 297.789 75.1706C297.95 75.1706 298.096 75.1839 298.257 75.2106C299.538 75.4375 300.472 76.5855 300.472 77.9336V82.0447C300.472 82.7788 300.192 83.4729 299.685 84.0068C299.178 84.5274 298.51 84.8077 297.803 84.8077C297.629 84.8211 297.469 84.8077 297.309 84.781ZM298.003 76.6122L297.776 76.5855C297.042 76.5855 296.468 77.1728 296.468 77.9336V82.0447C296.468 82.6988 296.922 83.2594 297.536 83.3662L297.763 83.3928C298.483 83.3928 299.071 82.7922 299.071 82.0447V77.9336C299.084 77.2795 298.63 76.7323 298.003 76.6122Z" fill="#484848"/>
<path d="M304.437 84.781C303.155 84.5408 302.234 83.4062 302.234 82.0581V77.9469C302.234 76.4253 303.435 75.1839 304.917 75.1839C305.077 75.1839 305.224 75.1973 305.384 75.224C306.652 75.4509 307.587 76.5988 307.587 77.9336V82.0447C307.587 82.7788 307.306 83.4729 306.799 84.0068C306.292 84.5274 305.624 84.8077 304.904 84.8077C304.744 84.8211 304.583 84.8077 304.437 84.781ZM305.131 76.6121L304.904 76.5855C304.17 76.5855 303.596 77.1728 303.596 77.9336V82.0447C303.596 82.6988 304.049 83.2594 304.663 83.3661L304.89 83.3928C305.237 83.3928 305.558 83.2594 305.811 83.0057C306.065 82.7521 306.198 82.4184 306.198 82.0447V77.9336C306.212 77.2795 305.758 76.7323 305.131 76.6121Z" fill="#484848"/>
<path d="M309.909 84.8049C309.575 84.7516 309.348 84.4579 309.348 84.1109V71.7775C309.348 71.5773 309.415 71.4037 309.549 71.2703C309.682 71.1368 309.856 71.07 310.042 71.07L310.163 71.0834C310.496 71.1501 310.737 71.4304 310.737 71.7775V79.0787L313.9 75.4214C314.06 75.2479 314.3 75.1545 314.541 75.2079L314.888 75.368C315.168 75.635 315.195 76.0755 314.941 76.3691L312.525 79.1054L315.008 83.7772C315.101 83.9373 315.115 84.1242 315.075 84.2977C315.021 84.4712 314.901 84.6314 314.741 84.7249C314.607 84.8049 314.447 84.8316 314.287 84.8049C314.074 84.7649 313.913 84.6448 313.807 84.4712L311.577 80.2533L310.723 81.2144V84.1109C310.723 84.2977 310.656 84.4846 310.523 84.6181C310.39 84.7516 310.216 84.8183 310.042 84.8183L309.909 84.8049Z" fill="#484848"/>
<path d="M340.249 84.7925C339.488 84.6591 338.847 84.1919 338.46 83.4978C338.367 83.3376 338.354 83.1374 338.394 82.9505C338.447 82.7637 338.554 82.6168 338.714 82.5234C338.847 82.4433 339.008 82.4166 339.168 82.4433C339.368 82.4834 339.542 82.6035 339.648 82.7904C339.835 83.1107 340.115 83.3109 340.463 83.3777C340.85 83.4444 341.197 83.3376 341.477 83.0707C341.744 82.8171 341.877 82.4567 341.851 82.0963C341.837 81.7225 341.65 81.3888 341.357 81.1753L339.501 79.8138C338.887 79.3733 338.514 78.6792 338.447 77.8917C338.407 77.0908 338.701 76.3434 339.248 75.8362C339.795 75.3022 340.543 75.062 341.29 75.1688C342.064 75.3156 342.705 75.7694 343.065 76.4235C343.145 76.5836 343.172 76.7705 343.132 76.9574C343.079 77.1442 342.972 77.3044 342.812 77.3845C342.678 77.4646 342.518 77.4913 342.358 77.4646C342.158 77.4245 341.984 77.3044 341.877 77.1309C341.717 76.8506 341.437 76.6504 341.09 76.5836C340.743 76.5302 340.409 76.6237 340.156 76.8639C339.915 77.0908 339.782 77.4245 339.808 77.7849C339.822 78.1186 340.009 78.4523 340.289 78.6392L342.144 79.974C342.785 80.4412 343.172 81.1753 343.212 81.9761C343.279 82.777 342.972 83.5512 342.385 84.0851C341.824 84.619 341.05 84.8726 340.276 84.7658" fill="#484848"/>
<path d="M345.574 84.8183C345.24 84.7515 345 84.4579 345 84.1242V71.7908C345 71.6039 345.08 71.4171 345.213 71.2836C345.347 71.1501 345.52 71.0834 345.694 71.0834L345.814 71.0967C346.148 71.1635 346.375 71.4438 346.375 71.7908V75.2746H347.683C347.843 75.2746 348.003 75.2879 348.15 75.3146C349.431 75.5415 350.352 76.6895 350.352 78.0376V84.1242C350.352 84.5246 350.045 84.8316 349.671 84.8316L349.551 84.8183C349.218 84.7649 348.977 84.4712 348.977 84.1242V78.0376C348.977 77.3835 348.524 76.8229 347.91 76.7162L347.669 76.6895H346.361V84.1242C346.361 84.5246 346.054 84.8316 345.667 84.8316L345.574 84.8183Z" fill="#484848"/>
<path d="M354.318 84.781C353.037 84.5541 352.116 83.4062 352.116 82.0581V77.9469C352.116 76.4253 353.317 75.1839 354.799 75.1839C354.959 75.1839 355.106 75.1973 355.266 75.224C356.547 75.4509 357.482 76.5988 357.482 77.9469V82.0581C357.482 82.7922 357.201 83.4863 356.694 84.0202C356.187 84.5407 355.519 84.8211 354.812 84.8211C354.638 84.8211 354.478 84.8077 354.318 84.781ZM355.026 76.6255L354.799 76.5988C354.452 76.5988 354.118 76.7323 353.878 76.9859C353.637 77.2395 353.504 77.5732 353.504 77.9336V82.0447C353.504 82.6988 353.958 83.2594 354.572 83.3661L354.799 83.3928C355.146 83.3928 355.466 83.2594 355.72 83.0057C355.973 82.7521 356.107 82.4184 356.107 82.0447V77.9336C356.093 77.2929 355.64 76.7323 355.026 76.6255Z" fill="#484848"/>
<path d="M368.052 76.0487C368.092 75.8618 368.066 75.6883 367.986 75.5281C367.892 75.368 367.732 75.2478 367.545 75.2078L367.425 75.1944C367.118 75.1944 366.838 75.408 366.758 75.7284C366.758 75.7551 366.01 78.8384 365.436 81.1876L365.423 81.241L365.409 81.1876C364.849 78.8517 364.088 75.7684 364.075 75.7284C364.021 75.4481 363.821 75.2478 363.541 75.2078L363.421 75.1944C363.114 75.1944 362.86 75.408 362.767 75.7284C362.753 75.7551 362.019 78.8384 361.445 81.1876L361.432 81.241L361.418 81.1876C360.858 78.8384 360.097 75.7684 360.097 75.7284C360.03 75.4614 359.817 75.2478 359.563 75.2078L359.296 75.2211C358.936 75.3146 358.709 75.6883 358.802 76.0621L360.791 84.2843C360.871 84.5513 361.071 84.7648 361.325 84.8049L361.432 84.8182C361.752 84.8182 362.019 84.6047 362.086 84.2843C362.099 84.2576 362.847 81.1743 363.421 78.8251L363.434 78.7717L363.447 78.8251C364.035 81.1876 364.769 84.2843 364.769 84.2843C364.849 84.5513 365.049 84.7515 365.303 84.8049L365.409 84.8182C365.73 84.8182 365.997 84.6047 366.064 84.2843" fill="#484848"/>
<g clip-path="url(#clip2_596_3385)">
<mask id="mask2_596_3385" style="mask-type:alpha" maskUnits="userSpaceOnUse" x="176" y="50" width="361" height="446">
<path d="M176.003 495.337H536.607V50.9907H176.003V495.337Z" fill="white"/>
</mask>
<g mask="url(#mask2_596_3385)">
<path d="M477.862 74.3853C477.743 74.53 477.675 74.6916 477.675 74.9725V82.6976H477.633C477.633 82.6976 473.404 75.1594 473.2 74.811C473.055 74.5638 472.894 74.3938 472.681 74.2659C472.468 74.1472 472.247 74.0706 471.822 74.0706H470.427C470.103 74.0706 469.899 74.1809 469.754 74.3516C469.635 74.4956 469.567 74.6578 469.567 74.9382V85.8881C469.567 86.1691 469.635 86.3307 469.754 86.4754C469.899 86.6454 470.103 86.7557 470.427 86.7557H471.218C471.541 86.7557 471.745 86.6454 471.89 86.4754C472.009 86.3307 472.077 86.1691 472.077 85.8881V77.9756H472.12C472.12 77.9756 476.509 85.7519 476.688 86.0413C476.935 86.4494 477.352 86.7557 477.947 86.7557H479.3C479.623 86.7557 479.828 86.6454 479.972 86.4754C480.091 86.3307 480.159 86.1691 480.159 85.8881V76.0101H497.932C498.111 76.0101 498.247 75.9595 498.35 75.8745C498.46 75.772 498.511 75.6357 498.511 75.432V74.6832C498.511 74.4788 498.46 74.3425 498.35 74.2406C498.247 74.1556 498.111 74.1044 497.932 74.1044H478.535C478.211 74.1044 478.007 74.2153 477.862 74.3853ZM485.622 77.3118C482.669 77.3118 481.01 79.6179 481.01 82.0513C481.01 84.6462 482.789 86.9263 485.639 86.9263C487.06 86.9263 488.455 86.3904 489.254 85.4456C489.603 85.0374 489.884 84.4671 489.884 84.1186C489.884 83.9992 489.858 83.8973 489.791 83.8208C489.723 83.7358 489.62 83.6845 489.442 83.6845H488.072C487.799 83.6845 487.612 83.7864 487.476 83.9908C487.076 84.578 486.498 84.8843 485.647 84.8843C484.371 84.8843 483.546 83.9142 483.486 82.8507H489.408C489.671 82.8507 489.858 82.791 489.986 82.6638C490.131 82.5275 490.199 82.3316 490.199 81.9656C490.199 80.8515 489.85 79.6945 489.119 78.8094C488.37 77.9159 487.23 77.3118 485.622 77.3118ZM494.75 77.3118C492.419 77.3118 490.888 78.4181 490.888 80.1877C490.888 80.8171 491.118 81.3278 491.492 81.7275C491.926 82.196 492.547 82.5191 493.449 82.7488L495.397 83.242C495.933 83.3782 496.409 83.5398 496.409 84.0077C496.409 84.7312 495.644 84.9778 494.827 84.9778C494.427 84.9778 494.01 84.9012 493.67 84.7312C493.432 84.6118 493.228 84.4418 493.083 84.2121C492.955 84.0161 492.913 83.8714 492.717 83.7611C492.598 83.693 492.453 83.6845 492.258 83.6845H491.203C490.973 83.6845 490.863 83.7527 490.786 83.8461C490.71 83.9396 490.684 84.0758 490.684 84.2121C490.684 84.5521 490.803 84.9778 491.084 85.3606C491.73 86.2282 493.083 86.9263 494.81 86.9263C496.512 86.9263 498.869 86.2197 498.869 83.9396C498.869 83.3529 498.698 82.8507 498.383 82.4425C497.984 81.9234 497.414 81.5659 496.444 81.3193L494.513 80.8255C493.713 80.6218 493.338 80.4771 493.338 79.9833C493.338 79.507 493.764 79.1242 494.75 79.1242C495.329 79.1242 495.857 79.252 496.197 79.6095C496.478 79.9073 496.427 80.0605 496.648 80.1792C496.784 80.2474 496.937 80.2474 497.176 80.2474H498.137C498.29 80.2474 498.401 80.222 498.485 80.128C498.554 80.0514 498.596 79.9326 498.596 79.7367C498.596 79.2942 498.307 78.7244 497.797 78.2903C497.116 77.7031 496.044 77.3118 494.75 77.3118ZM500.051 77.6356H499.575C499.396 77.6356 499.26 77.6862 499.158 77.7712C499.047 77.8737 498.996 78.01 498.996 78.2138V78.801C498.996 79.0054 499.047 79.141 499.158 79.2435C499.26 79.3285 499.396 79.3798 499.575 79.3798H500.051V83.6248C500.051 84.7137 500.349 85.3944 500.902 85.9394C501.412 86.441 502.076 86.7557 503.233 86.7557H503.956C504.135 86.7557 504.271 86.7051 504.373 86.6201C504.484 86.5176 504.552 86.3813 504.552 86.1775V85.4372C504.552 85.2328 504.484 85.0971 504.373 84.9946C504.271 84.9096 504.135 84.8584 503.956 84.8584H503.854C503.395 84.8584 503.08 84.7396 502.867 84.5352C502.612 84.2971 502.484 83.9311 502.484 83.4548V79.3798H504.033C504.212 79.3798 504.348 79.3285 504.45 79.2435C504.56 79.141 504.611 79.0054 504.611 78.801V78.2138C504.611 78.01 504.56 77.8737 504.45 77.7712C504.348 77.6862 504.212 77.6356 504.033 77.6356H502.493V74.8616C502.493 74.6403 502.425 74.4788 502.323 74.3516C502.195 74.1984 502.016 74.1044 501.753 74.1044H500.791C500.527 74.1044 500.349 74.1984 500.221 74.3516C500.119 74.4788 500.051 74.6403 500.051 74.8616V77.6356ZM505.258 85.9985C505.258 86.2197 505.326 86.3813 505.428 86.5091C505.556 86.6623 505.735 86.7557 505.998 86.7557H507.01C507.274 86.7557 507.453 86.6623 507.581 86.5091C507.683 86.3813 507.751 86.2197 507.751 85.9985V74.8622C507.751 74.6409 507.683 74.4794 507.581 74.3516C507.453 74.1984 507.274 74.1044 507.01 74.1044H505.998C505.735 74.1044 505.556 74.1984 505.428 74.3516C505.326 74.4794 505.258 74.6409 505.258 74.8622V85.9985ZM483.503 81.0384C483.613 79.9917 484.413 79.2092 485.63 79.2092C486.821 79.2092 487.646 79.9917 487.757 81.0384H483.503ZM516.965 76.0101C517.143 76.0101 517.28 75.9595 517.381 75.8745C517.492 75.772 517.544 75.6357 517.544 75.432V74.6403C517.544 74.3341 517.484 74.1809 517.381 74.0706C517.288 73.9681 517.135 73.909 516.965 73.909C516.829 73.909 516.693 73.9259 516.463 73.9512L509.673 74.6235C509.478 74.6403 509.385 74.7 509.316 74.7766C509.24 74.8616 509.205 74.9725 509.205 75.1257V75.5676C509.205 75.7382 509.24 75.8148 509.3 75.8829C509.376 75.9679 509.486 76.0101 509.64 76.0101H516.965ZM513.213 77.3118C510.261 77.3118 508.601 79.6179 508.601 82.0513C508.601 84.6462 510.38 86.9263 513.23 86.9263C514.651 86.9263 516.046 86.3904 516.846 85.4456C517.195 85.0374 517.476 84.4671 517.476 84.1186C517.476 83.9992 517.45 83.8973 517.381 83.8208C517.314 83.7358 517.211 83.6845 517.033 83.6845H515.663C515.391 83.6845 515.204 83.7864 515.068 83.9908C514.668 84.578 514.089 84.8843 513.238 84.8843C511.962 84.8843 511.137 83.9142 511.078 82.8507H517.016C517.28 82.8507 517.467 82.791 517.594 82.6638C517.739 82.5275 517.807 82.3316 517.807 81.9656C517.807 80.8515 517.458 79.6945 516.727 78.8094C515.978 77.9159 514.821 77.3118 513.213 77.3118ZM511.094 81.0384C511.205 79.9917 512.005 79.2092 513.221 79.2092C514.413 79.2092 515.238 79.9917 515.348 81.0384H511.094Z" fill="#484848"/>
<path d="M459.972 76.1117C457.77 72.8265 455.834 71.7196 455.29 71.1986C454.692 70.6241 454.236 69.9729 453.946 69.6594C453.301 68.9546 452.466 68.0846 451.092 68.0846C449.767 68.0846 448.891 68.9486 448.606 69.695C448.523 69.9078 448.458 70.1683 448.399 70.2629C448.269 70.4764 447.683 71.4766 447.44 71.8733H448.535L448.002 72.8795C448.624 72.7433 449.068 72.6426 449.66 72.6426C450.187 72.6426 450.565 72.7674 450.731 73.0984C451.039 73.7146 451.039 75.5788 451.56 76.9823C452.046 78.3015 453.23 79.5923 454.561 80.5811C454.579 80.5925 454.597 80.5985 454.621 80.5985C454.686 80.5985 454.727 80.5515 454.727 80.5039C454.727 80.4683 454.715 80.4448 454.686 80.4153C453.573 79.3023 452.667 78.0712 452.182 76.7219C451.702 75.4075 451.779 73.5602 451.359 72.7373C451.08 72.1928 450.489 72.0512 449.944 72.0512C449.506 72.0512 449.097 72.1398 448.908 72.1808L449.387 71.3699H448.576C448.748 71.0684 448.925 70.7899 449.015 70.6241C449.091 70.4818 449.121 70.3045 449.216 70.0622C449.524 69.2862 450.204 68.7949 451.092 68.7949C452.205 68.7949 452.856 69.5111 453.502 70.2274C453.798 70.559 454.283 71.2517 454.845 71.7666C455.23 72.1217 455.964 72.5184 457.095 73.685C457.746 74.3597 458.504 75.2357 459.303 76.4077C462.162 80.5925 464.039 84.2805 465.086 87.1575L465.069 87.1696C462.068 85.133 459.469 83.2091 457.373 80.8355C455.887 79.1486 454.597 77.1951 453.472 74.7027C453.395 74.5369 453.33 74.3832 453.259 74.2234C453.23 74.1583 453.2 74.1402 453.152 74.1402C453.093 74.1402 453.052 74.1818 453.052 74.2409C453.052 74.306 453.081 74.4483 453.146 74.7323C453.745 77.3133 455.402 79.6279 457.172 81.5517C458.936 83.4642 460.931 85.1095 462.57 86.3056L463.849 89.9635C463.879 90.0527 463.914 90.1474 463.914 90.236C463.914 90.3011 463.896 90.3541 463.855 90.3897C463.82 90.4253 463.773 90.4434 463.666 90.4434H463.281C463.115 90.4434 463.05 90.4193 462.991 90.3722C462.932 90.3246 462.891 90.2535 462.86 90.1709C462.748 89.8272 462.073 87.9033 461.943 87.5127C461.919 87.4421 461.878 87.418 461.831 87.418C461.772 87.418 461.73 87.4656 461.73 87.5187C461.73 87.5663 461.747 87.6194 461.778 87.7852C461.949 88.6612 462.15 89.6439 462.233 90.0171C462.269 90.1883 462.31 90.3487 462.31 90.4669C462.31 90.573 462.286 90.6327 462.198 90.7213L461.801 91.1241C461.706 91.2187 461.653 91.2422 461.576 91.2422C461.482 91.2422 461.404 91.1771 461.369 91.0113C460.919 88.9096 460.238 86.3056 460.061 85.5828C460.019 85.4236 459.989 85.3344 459.895 85.3344C459.812 85.3344 459.783 85.3934 459.783 85.4646C459.783 85.5176 459.794 85.5828 459.8 85.6304C459.907 86.3762 460.339 89.0935 460.806 91.5738C460.89 92.0001 461.049 92.2364 461.416 92.2364C461.582 92.2364 461.741 92.1713 461.89 92.0296C462.133 91.7867 462.203 91.7215 462.494 91.4376C462.701 91.2362 462.843 91.1536 463.198 91.1536H464.074C464.281 91.1536 464.394 91.1005 464.494 91.0053C464.589 90.9167 464.648 90.7925 464.648 90.6146C464.648 90.4313 464.601 90.2836 464.536 90.0997C464.311 89.4962 463.589 87.4536 463.375 86.8796L463.393 86.8675C464.133 87.4301 465.211 88.1463 465.684 88.1463C465.832 88.1463 465.921 88.0812 465.921 87.8503C465.921 86.7614 464.11 82.28 459.972 76.1117Z" fill="#484848"/>
<path d="M439.648 69.232C439.772 68.9594 440.045 68.7701 440.37 68.7701C440.814 68.7701 441.169 69.1138 441.169 69.5696C441.169 69.8355 441.045 70.067 440.849 70.2087C440.891 70.363 440.921 70.4987 440.921 70.6289C440.921 71.1263 440.625 71.4754 440.08 71.6593C440.009 71.9607 439.879 72.2332 439.665 72.4346C439.31 72.7776 438.949 72.7776 438.949 72.9199C438.949 72.9971 439.003 73.0441 439.15 73.0441C439.808 73.0441 440.453 72.6776 440.53 72.0674C441.158 71.8546 441.536 71.2209 441.536 70.7181C441.536 70.5873 441.524 70.4751 441.471 70.369C441.643 70.2026 441.844 69.9187 441.844 69.4984C441.844 69.1313 441.684 68.7587 441.4 68.4862C441.151 68.2432 440.802 68.0834 440.394 68.0834C439.802 68.0834 439.417 68.4036 439.198 68.7171C438.552 68.7171 437.718 69.4333 437.718 70.4577H437.629C437.57 70.1026 437.203 69.865 436.895 69.8475C436.647 69.1017 436.084 68.4627 435.16 68.4627C435.054 68.4627 434.924 68.4687 434.811 68.4862C434.539 68.2372 434.237 68.0834 433.817 68.0834C433.012 68.0834 432.354 68.7291 432.354 69.5455C432.354 70.0549 432.585 70.404 433.024 70.7121C433.024 70.7121 433.018 70.7772 433.018 70.8067C433.018 71.4579 433.728 72.4762 434.782 72.4762C434.782 72.6414 434.989 72.8669 435.22 72.9079V72.9911H435.131C433.681 72.9911 433.065 73.6898 433.065 74.1571C432.633 74.3349 432.354 74.8143 432.354 75.258C432.354 76.14 433 76.7677 433.853 76.7677C434.137 76.7677 434.427 76.6555 434.628 76.5012C434.776 76.5542 434.965 76.5838 435.16 76.5838C435.569 76.5838 436.025 76.4421 436.345 75.9742C436.392 75.9803 436.433 75.9803 436.481 75.9803C437.002 75.9803 437.451 75.6366 437.688 75.1869C437.747 75.0747 437.771 74.9861 437.771 74.9204C437.771 74.8559 437.741 74.8022 437.676 74.8022C437.594 74.8022 437.582 74.8794 437.434 75.0156C437.102 75.3177 436.593 75.4298 436.072 75.4298C435.818 75.803 435.504 75.9984 435.143 75.9984C434.876 75.9984 434.67 75.9272 434.456 75.7849C434.284 75.9742 434.072 76.0514 433.864 76.0514C433.397 76.0514 433.065 75.7258 433.065 75.252C433.065 74.9204 433.278 74.6249 433.574 74.5122C433.627 73.9262 434.255 73.5295 435.036 73.5295C435.137 73.5295 435.238 73.5355 435.344 73.5476C435.462 73.3582 435.746 73.1569 436.149 73.1032C436.232 73.0918 436.297 73.0857 436.345 73.0622C436.392 73.0381 436.416 72.9911 436.416 72.9374C436.416 72.8904 436.398 72.8488 436.351 72.8192C436.309 72.7957 436.238 72.7843 436.155 72.7662C435.782 72.695 435.338 72.4641 435.113 71.9016C434.219 71.9016 433.562 71.1854 433.562 70.3805V70.3274C433.266 70.2087 433.065 69.9247 433.065 69.5871C433.065 69.1433 433.414 68.7882 433.858 68.7882C434.125 68.7882 434.356 68.9184 434.504 69.1138C434.628 69.0782 434.77 69.0662 434.906 69.0662C435.569 69.0662 436.279 69.4864 436.416 70.3033C437.268 70.3805 437.47 71.1028 437.523 71.4048C437.552 71.5586 437.576 71.6888 437.676 71.6888C437.783 71.6888 437.807 71.57 437.842 71.4103C437.907 71.1088 438.02 70.8658 438.245 70.6765C438.245 69.9006 438.825 69.232 439.648 69.232Z" fill="#484848"/>
<path d="M441.371 73.8721C441.093 74.2688 440.892 74.4642 440.258 75.21C439.424 76.1987 438.985 76.9982 438.257 78.7737C438.376 78.7617 438.548 78.7502 438.737 78.7502C438.832 78.7502 438.908 78.7502 439.033 78.7556L439.122 78.5663C439.53 77.6903 440.08 76.5062 440.85 75.5946L441.117 75.2811C441.909 74.352 442.401 73.801 442.709 72.5343C442.816 72.0845 442.904 71.6824 443.206 71.3918C443.478 71.1313 443.822 71.0192 444.171 71.0192C444.467 71.0192 444.686 71.0903 445.006 71.226C445.296 71.3502 445.402 71.3743 445.71 71.3743C445.817 71.3743 445.893 71.3682 445.965 71.3622L445.55 71.9187L446.113 72.3154C445.408 72.5222 445.036 73.2035 444.911 73.517C444.887 73.5821 444.876 73.6237 444.876 73.6653C444.876 73.7129 444.899 73.76 444.97 73.76C445.047 73.76 445.106 73.7009 445.207 73.5821C445.55 73.1679 445.823 72.8833 447.089 72.4872L446.196 71.812L446.87 70.8238H446.237C445.834 70.8238 445.568 70.8178 445.219 70.658C444.745 70.4392 444.503 70.3445 444.082 70.3445C443.567 70.3445 443.1 70.5278 442.715 70.8829C442.271 71.2911 442.134 71.8361 441.975 72.4342C441.85 72.8954 441.703 73.4049 441.371 73.8721Z" fill="#484848"/>
<path d="M442.732 77.9009C442.395 78.3567 441.933 78.9542 441.578 79.5878C441.69 79.6415 442.064 79.8429 442.194 79.9134C442.602 79.2978 443.171 78.5406 443.543 77.966C443.881 77.4451 444.017 77.2202 444.041 76.5215C444.047 76.4033 444.047 76.2905 444.058 76.1784C444.088 75.8173 444.183 75.4501 444.526 75.1131C444.78 74.858 445.147 74.7284 445.515 74.7284C445.87 74.7284 446.077 74.8285 446.385 74.8285C446.603 74.8285 446.763 74.7754 446.906 74.7224L447.018 74.6808L446.746 75.3325L447.385 75.5924C446.977 75.8468 446.083 76.9423 446.083 78.2385C446.083 78.7064 446.154 79.1381 446.254 79.5227C446.266 79.5643 446.29 79.6059 446.355 79.6059C446.414 79.6059 446.456 79.5704 446.462 79.5052L446.468 79.369C446.485 78.9723 446.515 78.3453 446.675 77.7827C446.941 76.8356 447.657 75.9475 448.374 75.5212L447.355 75.0775L447.794 74.0061L447.314 74.1068C447.024 74.1659 446.811 74.219 446.556 74.219C446.391 74.219 446.201 74.1955 445.976 74.1418C445.805 74.1008 445.621 74.0652 445.361 74.0652C444.893 74.0652 444.39 74.2425 444.047 74.5741C443.419 75.1722 443.383 75.8173 443.342 76.3918C443.289 77.1551 443.146 77.3444 442.732 77.9009Z" fill="#484848"/>
<path d="M457.923 78.2647C457.881 78.2117 457.846 78.1876 457.799 78.1876C457.728 78.1876 457.692 78.2352 457.692 78.2883C457.692 78.3715 457.751 78.4721 457.9 78.7211C458.349 79.4844 458.906 80.2537 459.592 80.9766C460.332 81.7634 461.202 82.4971 462.132 83.1543L462.422 83.3557C462.464 83.3858 462.493 83.4033 462.529 83.4033C462.588 83.4033 462.629 83.3442 462.629 83.2966C462.629 83.267 462.617 83.2369 462.582 83.2074C461.718 82.4206 460.788 81.4613 459.918 80.5383C459.237 79.81 458.539 79.0407 457.923 78.2647Z" fill="#484848"/>
<path d="M438.873 75.587C438.961 75.4393 439.228 75.0782 439.335 74.9654C438.879 74.0424 438.133 73.1603 437.807 72.8107L437.535 73.0771C437.849 73.5329 438.375 74.415 438.873 75.587Z" fill="#484848"/>
<path d="M434.534 70.2392C434.48 70.1915 434.469 70.162 434.469 70.1264C434.469 70.0854 434.498 70.0378 434.563 70.0378C434.587 70.0378 434.61 70.0438 434.64 70.0559C435.078 70.2331 435.451 70.4405 435.783 70.6949C436.061 70.9078 436.333 71.1688 436.599 71.4823L436.351 71.7663C436.043 71.5113 435.049 70.6775 434.534 70.2392Z" fill="#484848"/>
<path d="M438.731 72.22L438.411 72.0246C438.618 71.5333 438.873 71.0835 439.174 70.7459C439.388 70.5035 439.589 70.3076 439.814 70.1128C439.867 70.0712 439.897 70.0356 439.95 70.0356C440.009 70.0356 440.051 70.0833 440.051 70.1303C440.051 70.1538 440.039 70.1834 440.015 70.2189C439.654 70.7814 438.95 71.8944 438.731 72.22Z" fill="#484848"/>
<path d="M434.718 74.9629C434.64 74.9924 434.605 75.0105 434.564 75.0105C434.499 75.0105 434.469 74.9569 434.469 74.9153C434.469 74.8743 434.487 74.8508 434.528 74.8146C435.256 74.2466 435.896 74.0218 436.778 73.8734L436.884 74.2292L434.718 74.9629Z" fill="#484848"/>
<path d="M449.901 70.375C449.901 70.1676 450.008 69.7944 450.392 69.7944C450.522 69.7944 450.647 69.8239 450.747 69.8716C450.89 69.9367 450.984 70.0313 450.984 70.132C450.984 70.2387 450.878 70.3455 450.718 70.4757C450.552 70.6113 450.339 70.7361 450.167 70.7361C449.961 70.7361 449.901 70.5402 449.901 70.375Z" fill="#484848"/>
<path d="M443.894 72.1033C443.894 71.8489 444.048 71.5703 444.344 71.5703C444.474 71.5703 444.628 71.6234 444.74 71.7307C444.805 71.7898 444.835 71.8543 444.835 71.92C444.835 72.0623 444.699 72.198 444.539 72.2926C444.415 72.3638 444.284 72.4114 444.172 72.4114C443.988 72.4114 443.894 72.298 443.894 72.1033Z" fill="#484848"/>
<path d="M445.284 75.7614C445.284 75.7024 445.29 75.6312 445.313 75.5601C445.361 75.4063 445.461 75.258 445.71 75.258C445.823 75.258 445.946 75.2876 446.047 75.3593C446.136 75.4184 446.172 75.495 446.172 75.5721C446.172 75.8266 445.746 76.1226 445.532 76.1226C445.378 76.1226 445.284 75.9743 445.284 75.7614Z" fill="#484848"/>
<path d="M442.954 83.2285C442.155 83.2285 441.799 82.8498 441.799 82.3705C441.799 81.5295 443.273 80.7071 444.599 80.1977L444.943 80.642C444.126 80.967 442.48 81.6663 442.48 82.2699C442.48 82.4827 442.605 82.637 443.101 82.637C443.966 82.637 444.896 82.2162 445.754 81.796C445.819 81.7664 445.896 81.7369 445.967 81.7369C446.079 81.7369 446.15 81.7725 446.233 81.8906L446.375 82.086C445.375 82.637 444.126 83.2285 442.954 83.2285Z" fill="#484848"/>
<path d="M445.155 83.4501C444.374 83.8878 443.563 84.1784 442.847 84.1784C442.047 84.1784 441.337 83.8348 440.745 82.9407C440.496 82.562 440.301 82.0888 440.064 81.6685C439.78 81.1711 439.472 80.9047 438.934 80.9047C438.442 80.9047 437.962 81.106 437.454 81.3249L437.477 81.4376C437.519 81.6209 437.59 81.7511 437.761 81.7511C437.838 81.7511 437.915 81.7162 437.957 81.7041C438.241 81.6149 438.448 81.5377 438.738 81.5377C439.182 81.5377 439.395 81.7988 439.697 82.4378L439.81 82.6748C439.502 82.7815 438.779 82.8346 438.241 82.8346H437.987L438.028 83.089C438.046 83.1957 438.087 83.2843 438.176 83.3259C438.282 83.379 438.436 83.385 438.703 83.385C439.377 83.385 439.869 83.3024 440.153 83.2307C440.881 84.3147 441.881 84.7289 442.847 84.7289C443.669 84.7289 444.504 84.4268 445.303 83.9891L445.155 83.4501Z" fill="#484848"/>
<path d="M445.959 83.7222L445.817 83.1771C447.036 82.5206 448.149 81.9936 449.925 81.8218C449.961 82.5025 449.913 83.361 450.417 83.361C450.878 83.361 451.884 82.1709 453.045 80.6793C453.151 80.78 453.323 80.8867 453.477 81.0049L453.181 81.3895C452.05 82.8461 451.085 84.0893 450.292 84.0893C449.552 84.0893 449.274 83.2187 449.262 82.5676C448.132 82.6803 447.066 83.059 445.959 83.7222Z" fill="#484848"/>
<path d="M461.623 71.8338C461.161 71.8338 461.031 71.5788 461.031 71.2182C461.031 70.4725 461.499 69.4011 461.795 68.791H461.078C460.705 69.5132 459.237 71.8278 458.444 72.787L458.899 73.2778C459.326 72.8045 459.794 71.9996 460.302 71.2062H460.397C460.397 71.2478 460.392 71.2948 460.392 71.3364C460.392 72.0056 460.735 72.5024 461.581 72.5024C462.102 72.5024 462.919 72.242 463.689 71.9815C464.328 71.7627 464.914 71.5378 465.204 71.4552V70.745C464.872 70.845 464.198 71.1055 463.499 71.3485C462.765 71.6029 462.043 71.8338 461.623 71.8338Z" fill="#484848"/>
<path d="M463.202 73.9878C463.912 73.6864 465.185 73.1769 465.919 72.9105V72.1882C464.445 72.7332 461.858 73.8046 460.094 74.7638C460.141 74.8223 460.449 75.2546 460.484 75.3082C461.23 75.0001 461.899 74.7988 462.503 74.7988C463.35 74.7988 464.042 74.7988 465.203 74.5262V73.9818C464.552 74.1006 463.859 74.2423 463.409 74.2423C463.143 74.2423 463.065 74.2067 463.065 74.1181C463.065 74.065 463.101 74.0295 463.202 73.9878Z" fill="#484848"/>
</g>
<path d="M448.038 77.3102L447.754 77.8552H450.779L450.554 77.3102H448.038Z" fill="#484848"/>
<mask id="mask3_596_3385" style="mask-type:alpha" maskUnits="userSpaceOnUse" x="176" y="50" width="361" height="446">
<path d="M176.003 495.337H536.607V50.9907H176.003V495.337Z" fill="white"/>
</mask>
<g mask="url(#mask3_596_3385)">
<path d="M437.142 80.5593C437.462 80.5593 437.722 80.4526 437.971 80.3525C438.208 80.2573 438.444 80.1626 438.764 80.1626C439.522 80.1626 440.457 80.5298 441.28 80.8789C441.328 80.8969 441.381 80.9084 441.434 80.9084C441.565 80.9084 441.665 80.8493 441.73 80.7251L441.836 80.5298C440.931 80.0028 439.486 79.4403 438.734 79.4403C438.391 79.4403 438.142 79.5296 437.906 79.6236C437.64 79.7309 437.409 79.8431 437.166 79.8431C436.568 79.8431 435.035 79.251 435.035 78.6771C435.035 78.0024 437.474 77.7419 437.74 77.7419L437.983 77.1909C436.213 77.1909 434.105 77.8125 434.105 78.6355C434.105 78.8724 434.242 78.9906 434.242 79.2094C434.242 79.5054 434.105 79.7068 434.105 80.0384C434.105 80.2573 434.236 80.5358 434.389 80.7788C434.555 81.0332 434.75 81.1984 434.75 81.4118C434.75 81.5716 434.644 81.7609 434.644 82.1341C434.644 82.933 435.1 83.4189 435.988 84.3715L436.166 84.5608C435.432 84.8454 434.064 85.4374 433.744 85.5731C432.637 86.0349 432.359 86.5974 432.359 87.4855C432.359 87.8285 432.359 88.2192 432.383 88.5683H432.596C433.04 88.5683 433.093 88.3024 433.093 88.048C433.093 87.8762 433.087 87.6808 433.087 87.4674C433.093 86.9766 433.111 86.5383 433.904 86.1832C434.224 86.0409 435.792 85.4019 436.959 84.9045C437.302 84.7561 437.622 84.6319 437.977 84.6319C438.373 84.6319 438.829 84.8038 439.398 85.1414C439.877 85.4254 440.38 85.81 440.777 86.2538L441.28 85.8691C440.848 85.3603 440.25 84.9045 439.652 84.5493C439.054 84.1942 438.522 83.9868 438.072 83.9868C437.877 83.9868 437.717 84.0224 437.581 84.058C437.421 84.0996 437.272 84.1466 437.083 84.1466C436.864 84.1466 436.68 84.0936 436.414 83.7855C436.313 83.6733 435.674 82.945 435.538 82.7322C435.473 82.6315 435.355 82.4301 435.355 82.1932C435.355 82.0925 435.372 81.9743 435.432 81.8676C435.982 82.2939 436.663 82.5543 437.491 82.655L437.379 82.0925C436.189 81.779 434.922 80.7312 434.922 80.0565C434.922 79.9142 434.958 79.8135 435.012 79.6893C435.473 80.1156 436.556 80.5593 437.142 80.5593Z" fill="#484848"/>
<path d="M445.66 80.67C446.406 80.143 447.175 80.0839 447.797 80.0839C448.17 80.0839 448.608 80.137 449.07 80.1961C449.443 80.2437 449.78 80.2793 450.183 80.2793C450.993 80.2793 451.81 79.9832 452.166 79.8289C452.266 79.9537 452.438 80.1195 452.574 80.2377C452.402 80.3444 451.314 80.9358 450.201 80.9358C449.709 80.9358 449.241 80.8774 448.839 80.8237C448.484 80.7767 448.099 80.7351 447.726 80.7351C447.318 80.7351 446.495 80.8532 445.986 81.0962L445.66 80.67Z" fill="#484848"/>
<path d="M456.653 82.7879C455.765 84.6587 454.415 86.0201 453.03 86.8075C452.373 87.1801 451.781 87.423 450.503 87.423H447.738C446.75 87.423 446.128 87.5532 445.643 87.6774C445.121 87.8137 444.79 87.9494 444.263 87.9494C443.482 87.9494 442.76 87.5647 442.411 87.1981L443.062 86.6833L442.736 86.2504C442.547 86.3872 440.232 88.0977 439.746 88.4823L439.717 88.4648C439.729 88.3467 439.729 88.24 439.729 88.1332C439.729 86.831 439.125 86.5169 438.208 86.1503L437.586 86.5169C438.847 86.9377 439.16 87.2747 439.16 88.2158C439.16 88.9622 438.894 89.2577 438.509 89.4831C438.113 89.7141 437.621 89.8202 437.19 89.8202C437.006 89.8202 436.923 89.8557 436.858 89.9209C436.787 89.992 436.751 90.0987 436.751 90.2464V90.4538H436.9C437.692 90.4538 438.427 90.3296 439.232 89.696L441.854 87.6479C442.227 88.0742 443.169 88.6662 444.281 88.6662C444.909 88.6662 445.311 88.5119 445.891 88.3642C446.341 88.2514 446.779 88.1507 447.738 88.1507H450.514C451.935 88.1507 452.622 87.8547 453.379 87.4291C455.025 86.5054 456.428 84.9427 457.222 83.1484C457.014 83.0188 456.819 82.9 456.653 82.7879Z" fill="#484848"/>
<path d="M452.195 85.0076C452.911 83.8591 453.55 82.8408 455.119 82.0124C454.953 81.9117 454.717 81.758 454.592 81.6748C453.983 81.9413 453.379 82.4736 452.864 83.0126C451.68 84.2438 451.786 84.954 450.538 85.4339C450.224 85.5521 449.839 85.6823 449.348 85.795C449.058 84.9009 448.33 84.0129 447.56 84.0129C447.027 84.0129 446.411 84.2908 445.701 84.6049C444.867 84.9721 444.103 85.3923 443.861 85.5521L444.186 85.9904C444.435 85.8535 445.151 85.4984 445.867 85.1909C446.489 84.9244 447.051 84.7056 447.43 84.7056C448.039 84.7056 448.436 85.3983 448.656 85.9542C447.856 86.1441 446.542 86.1912 446.146 86.1912C445.962 86.1912 445.897 86.2207 445.831 86.2744C445.772 86.3274 445.725 86.4221 445.695 86.5523L445.648 86.7537H446.074C448.288 86.7537 450.378 86.4046 451.721 85.5876C451.911 85.6413 452.077 85.6763 452.29 85.6763C453.059 85.6763 453.853 85.256 454.35 84.8714C454.527 84.7351 454.569 84.6103 454.569 84.4747C454.569 84.4096 454.563 84.3505 454.557 84.2908L454.533 84.0605C453.823 84.6224 453.231 85.0432 452.497 85.0432C452.367 85.0432 452.272 85.0312 452.195 85.0076Z" fill="#484848"/>
</g>
</g>
<g clip-path="url(#clip3_596_3385)">
<path d="M621.764 75.0712C625.714 74.2785 629.792 74.2907 633.782 74.7669C635.43 74.9811 637.147 75.1978 638.6 76.0684C639.448 76.56 640.105 77.4533 640.136 78.457C637.416 78.513 634.696 78.4846 631.977 78.4765C631.165 77.528 629.867 77.231 628.672 77.1767C627.07 77.1231 625.405 77.244 623.938 77.9418C622.699 78.5292 621.635 79.6172 621.307 80.9763C621.147 81.5953 621.547 82.2355 622.091 82.5154C623.142 83.0517 624.347 83.1142 625.504 83.1572C627.018 83.218 628.595 82.9349 629.88 82.0951C630.007 82.0229 630.119 81.8858 630.281 81.9061C633.03 81.8963 635.781 81.9004 638.531 81.9126C637.584 82.9722 636.325 83.7 635.013 84.2144C633.37 84.8602 631.624 85.1994 629.879 85.4322C627.943 85.6627 625.994 85.8047 624.044 85.7763C621.406 85.7617 618.738 85.5905 616.194 84.8521C615.021 84.4862 613.837 83.9256 613.072 82.9276C612.434 82.1365 612.345 80.9868 612.763 80.074C613.305 78.8732 614.365 78.0051 615.478 77.3511C617.421 76.2339 619.574 75.5207 621.764 75.0712Z" fill="#484848"/>
<path d="M587.162 74.8174C590.021 74.7711 592.88 74.8441 595.739 74.8328C595.213 76.0198 594.679 77.2044 594.152 78.3914C596.934 78.3963 599.716 78.3817 602.498 78.3987C603.043 77.2158 603.55 76.0141 604.095 74.8312C607.033 74.8279 609.97 74.8206 612.908 74.832C611.314 78.3549 609.726 81.8794 608.139 85.4056C605.678 85.4592 603.217 85.4267 600.756 85.434C600.29 85.4389 599.823 85.4494 599.361 85.3845C600.012 84.0003 600.626 82.5991 601.251 81.2044C598.461 81.2036 595.67 81.2036 592.88 81.2036C592.275 82.6024 591.65 83.993 591.064 85.3991C588.172 85.4608 585.281 85.4373 582.389 85.421C583.956 81.8754 585.585 78.3573 587.162 74.8174Z" fill="#484848"/>
<path d="M644.257 74.7963C647.212 74.7963 650.167 74.7963 653.121 74.7963C651.924 77.4803 650.72 80.1602 649.511 82.8393C653.582 82.8418 657.655 82.8515 661.726 82.8507C661.339 83.7091 660.953 84.5675 660.565 85.4251C653.544 85.4308 646.524 85.4324 639.504 85.4243C641.069 81.873 642.669 78.3371 644.257 74.7963Z" fill="#484848"/>
</g>
<defs>
<clipPath id="clip0_596_3385">
<rect width="87.7968" height="21.8614" fill="white" transform="translate(0 12.9659)"/>
</clipPath>
<clipPath id="clip1_596_3385">
<rect width="67.2659" height="34.5419" fill="white" transform="translate(270.099 6.62558)"/>
</clipPath>
<clipPath id="clip2_596_3385">
<rect width="86.0247" height="24.7255" fill="white" transform="translate(432.071 67.7931)"/>
</clipPath>
<clipPath id="clip3_596_3385">
<rect width="80" height="12.0081" fill="white" transform="translate(582.096 74.1518)"/>
</clipPath>
</defs>
</svg>
