<svg width="24" height="24" viewBox="0 0 24 24" fill="none" xmlns="http://www.w3.org/2000/svg">
<g id="24px / Twitter">
<path id="Vector" d="M21 5.00841C20.2165 5.57307 19.349 6.00495 18.4309 6.28741C17.9382 5.70852 17.2833 5.29822 16.5548 5.112C15.8264 4.92578 15.0596 4.97262 14.3581 5.24619C13.6565 5.51977 13.0542 6.00686 12.6324 6.64161C12.2107 7.27636 11.9899 8.02813 12 8.79525V9.6312C10.5622 9.6693 9.13741 9.34348 7.85264 8.68277C7.10073 8.29609 6.41043 7.80173 5.80147 7.2171C5.23497 6.67324 4.28389 6.79977 4.12635 7.56911C3.62986 9.99362 3.57938 14.3741 8.72727 16.7117C7.04225 17.8803 5.03495 18.4663 3 18.3836C10.3636 22.5633 19.3636 18.3836 19.3636 8.77018C19.3629 8.53733 19.341 8.30505 19.2982 8.07634C20.1332 7.23495 20.7225 6.17264 21 5.00841Z" stroke="white" stroke-width="1.5" stroke-linecap="round" stroke-linejoin="round"/>
</g>
</svg>
