<svg width="72" height="6" viewBox="0 0 72 6" fill="none" xmlns="http://www.w3.org/2000/svg">
<g clip-path="url(#clip0_662_14647)">
<path fill-rule="evenodd" clip-rule="evenodd" d="M19.5772 0.000160829C19.0897 0.000741212 18.6029 0.00422351 18.1153 0.0117685C14.6295 0.0657441 11.1437 0.16615 7.65781 0.242761C5.45322 0.291513 3.24793 0.314148 1.04541 0.398884C0.688893 0.412233 0.34755 0.690236 0 0.845779C0.204116 1.11276 0.339275 1.46795 0.626831 1.62639C1.09988 1.88699 1.67293 2.01931 2.21425 2.20968C0.975759 2.74421 0.951624 2.96186 1.94945 3.77903C2.11012 3.9102 2.14046 4.15338 2.2308 4.34549C2.30941 4.51322 2.34596 4.70707 2.47215 4.8423C2.92383 5.32401 3.53618 5.49349 4.26231 5.47375C8.35498 5.36174 12.4477 5.25031 16.541 5.16441C19.8496 5.09592 23.1603 5.02976 26.4703 5.02686C29.1687 5.02454 31.867 5.13075 34.5653 5.16325C36.3541 5.18472 38.1443 5.17253 39.9337 5.14816C40.1902 5.14468 40.4495 5.00016 40.6971 4.90208C40.9784 4.79064 41.2481 4.65715 41.6949 4.45634C41.4791 4.94038 41.1957 5.26017 41.9073 5.22187C42.2107 5.20562 42.519 5.29151 42.8258 5.29325C43.923 5.3008 45.0235 5.32285 46.1193 5.27991C46.9454 5.2474 47.7391 5.17776 48.5625 5.41804C49.5072 5.69372 50.4112 5.16093 51.5104 5.36058C53.5578 5.73318 55.7383 5.59331 57.8642 5.64787C58.1187 5.65425 58.3849 5.48594 58.6338 5.50683C59.2 5.55385 59.7544 5.69836 60.3199 5.74769C61.0991 5.81502 61.8969 5.76917 62.6624 5.88524C63.3754 5.99436 64.076 5.86667 64.8001 5.93516C66.5661 6.09999 68.3804 5.91078 70.174 5.84578C70.3422 5.83939 70.5071 5.70707 70.6677 5.62581C70.8691 5.52425 71.076 5.42674 71.2608 5.30602C71.5173 5.13829 71.7545 4.95199 72 4.77323C71.7655 4.61943 71.5545 4.40411 71.289 4.32982C71.0436 4.26075 70.7394 4.34085 70.4609 4.35768C69.4816 4.41804 68.5024 4.5196 67.5225 4.52889C66.5509 4.53818 65.5779 4.43893 64.6049 4.41571C61.5087 4.34085 58.4118 4.29267 55.3156 4.20678C53.6061 4.15861 51.9001 4.03266 50.1892 3.98333C48.6052 3.93806 47.0185 3.9694 45.4338 3.92761C43.2947 3.87015 41.1577 3.74943 39.018 3.70184C35.8866 3.63278 32.7538 3.59041 29.6217 3.56545C27.2571 3.54688 24.8912 3.5788 22.5259 3.57474C21.9363 3.57358 21.3474 3.52367 20.7578 3.49581C20.7613 3.43197 20.7647 3.36812 20.7682 3.30486C21.4371 3.30486 22.1066 3.31879 22.7742 3.30196C24.3036 3.26365 25.8325 3.21896 27.3606 3.15454C27.6212 3.1441 27.884 2.94212 28.1315 2.96127C29.0907 3.03614 30.041 3.22883 31.0002 3.25959C32.6241 3.31067 34.2523 3.277 35.8783 3.25959C35.9866 3.25843 36.0927 3.09476 36.0893 3.09708C38.7656 3.13017 41.3729 3.62001 43.8816 2.94502C44.1498 3.10695 44.3064 3.28281 44.4684 3.28629C45.7655 3.31183 47.095 3.44241 48.3459 3.2387C48.8287 3.15919 49.1183 3.23347 49.4996 3.31299C49.661 3.34665 49.8361 3.34026 50.0051 3.34433C51.5228 3.38147 53.042 3.40121 54.5591 3.45576C58.2442 3.58751 61.9286 3.72738 65.6138 3.88002C66.6626 3.92413 67.6591 3.93574 68.2011 2.96998C68.2314 2.91484 68.4976 2.97346 68.5707 2.91078C68.8727 2.65193 69.3403 2.38437 69.3768 2.08664C69.4396 1.57938 68.8527 1.66586 68.4369 1.66934C67.6543 1.67573 66.8702 1.71519 66.0903 1.68095C63.1037 1.54862 60.1178 1.39076 57.1312 1.24566C56.081 1.19401 55.0301 1.16209 53.9805 1.10347C52.5076 1.02163 51.0374 0.902656 49.5637 0.836493C44.967 0.629296 40.373 0.401205 35.7735 0.25611C31.8387 0.131327 27.8998 0.101728 23.9623 0.0436896C22.5025 0.0210546 21.0392 -0.0021607 19.5772 0.000160829ZM24.105 1.46737H28.5604C28.5604 1.52193 28.5611 1.57706 28.5611 1.63162H24.1071C24.1071 1.57648 24.1057 1.52193 24.105 1.46737ZM19.1125 1.50219H23.6727C23.6782 1.56487 23.6844 1.62814 23.6906 1.69082H19.1132C19.1125 1.62814 19.1125 1.56487 19.1125 1.50219ZM14.2523 3.44996H18.6815C18.6835 3.48826 18.6849 3.52599 18.687 3.56429H14.2557C14.2544 3.52599 14.253 3.48826 14.2516 3.44996H14.2523Z" fill="white"/>
</g>
<defs>
<clipPath id="clip0_662_14647">
<rect width="72" height="6" fill="white"/>
</clipPath>
</defs>
</svg>
