<svg width="24" height="24" viewBox="0 0 24 24" fill="none" xmlns="http://www.w3.org/2000/svg">
<g id="24px / Filled / Youtube">
<path id="Subtract" fill-rule="evenodd" clip-rule="evenodd" d="M11.9295 19.6012L11.9999 19.6013L12.0705 19.6012L12.2685 19.6005C12.4395 19.5997 12.6852 19.5981 12.9846 19.5949C13.5832 19.5885 14.3981 19.5756 15.2618 19.55C16.1243 19.5243 17.0414 19.4857 17.8428 19.4273C18.6231 19.3704 19.3573 19.2908 19.8161 19.1681L19.8265 19.1652C20.3707 19.0113 20.8647 18.7164 21.2585 18.3104C21.6523 17.9044 21.932 17.4017 22.0693 16.853C22.0734 16.8368 22.0769 16.8205 22.0799 16.804C22.3646 15.225 22.505 13.6233 22.4995 12.0188C22.5095 10.3899 22.3585 8.71463 22.0693 7.11159C21.932 6.56291 21.6523 6.06019 21.2585 5.65421C20.8647 5.24823 20.3707 4.95336 19.8265 4.79938C19.8178 4.79692 19.809 4.79461 19.8002 4.79246C19.3473 4.68187 18.6187 4.60949 17.838 4.55751C17.038 4.50423 16.1219 4.469 15.2598 4.44561C14.3967 4.42219 13.5822 4.4105 12.9839 4.40466C12.6846 4.40173 12.4391 4.40027 12.2682 4.39954L12.0704 4.3989L11.9999 4.3988L11.9295 4.39891L11.7315 4.39961C11.5605 4.40041 11.3148 4.40201 11.0154 4.40522C10.4168 4.41162 9.60191 4.42443 8.73823 4.4501C7.87575 4.47573 6.95858 4.51434 6.15723 4.57279C5.37686 4.62971 4.64273 4.70918 4.18388 4.8319L4.17349 4.83484C3.62926 4.98881 3.13529 5.28368 2.74148 5.68966C2.34768 6.09565 2.06799 6.59836 1.93066 7.14704C1.9266 7.16325 1.92308 7.17959 1.92012 7.19604C1.63323 8.78692 1.49277 10.4007 1.5005 12.0173C1.49053 13.646 1.631 15.2721 1.92012 16.875C1.92452 16.8993 1.93011 16.9235 1.93689 16.9473C2.0883 17.4789 2.37425 17.9625 2.76714 18.3513C3.16003 18.7402 3.64656 19.0211 4.17973 19.167L4.1839 19.1681C4.64275 19.2908 5.37686 19.3704 6.15723 19.4273C6.95858 19.4857 7.87575 19.5243 8.73823 19.55C9.60191 19.5756 10.4168 19.5885 11.0154 19.5949C11.3148 19.5981 11.5605 19.5997 11.7315 19.6005L11.9295 19.6012ZM10.7952 8.70907C10.5866 8.59044 10.3307 8.5917 10.1233 8.71235C9.91588 8.83301 9.78827 9.05486 9.78827 9.29482V14.5028C9.78827 14.7427 9.91588 14.9646 10.1233 15.0853C10.3307 15.2059 10.5866 15.2072 10.7952 15.0885L15.3741 12.4846C15.5847 12.3648 15.7148 12.1411 15.7148 11.8988C15.7148 11.6565 15.5847 11.4328 15.3741 11.3131L10.7952 8.70907Z" fill="white"/>
</g>
</svg>
